<svg
	viewBox="0 0 16 16"
	xmlns="http://www.w3.org/2000/svg"
	>
	<style>
		.monogram {
			fill: #212023;
		}

		@media (prefers-color-scheme: dark) {
			.monogram {
				fill: #f8f7f7;
			}
		}

		/* Remove this, when Chrome bug is fixed. */
		.monogram {
			fill: #999999;
		}
	</style>
	<path
		class="monogram"
		d="M14.3119463,0.350000001 C13.0279261,0.350000001 12.1332091,0.969600712 11.5856123,1.77388357 L10.9412694,2.71943619 C9.5550344,2.27068719 8.37187777,1.78862187 7.29350145,1.20562006 C5.94132671,2.67758161 5.03436944,4.45756639 5.03436944,5.99797754 C5.03436944,8.14646902 6.55740557,8.48692695 7.9418923,8.94539983 L7.42202247,9.93111938 C6.82314724,9.66821137 6.36188542,9.54171981 5.65041589,9.54171981 C3.83620629,9.54171981 1.23453124,12.2121395 1.20030644,14.1284334 C1.18319404,15.1383601 1.88480249,15.85 2.79353,15.85 C4.46051392,15.85 5.47840675,14.4556343 6.60516986,12.2850148 C7.08903776,12.6423099 7.66082799,13.1406348 8.37335298,13.8375226 C8.57988196,11.8017369 11.8477605,10.6882507 11.8477605,8.6858047 C11.8312382,7.65611021 11.2343694,6.98105549 9.47975823,6.34789664 C10.3524907,4.75142762 12.0073779,0.967226612 13.0102236,0.967226612 C13.19846,0.967226612 13.3182469,1.08701342 13.3182469,1.39503664 C13.3182469,1.92611117 12.8733244,2.1137575 12.8733244,2.64453698 C12.8733244,3.12368421 13.2669097,3.46593224 13.8658437,3.46593224 C14.7559836,3.46593224 15.6116037,2.49052537 15.6116037,1.60038546 C15.6116037,0.763057963 15.0982316,0.350000001 14.3119463,0.350000001 Z M2.72360519,15.0191634 C1.90220993,14.9678262 1.50543432,14.4912793 1.50543432,13.8743477 C1.50543432,12.6761846 2.7920548,11.4066765 4.21267914,11.4066765 C4.91340247,11.4066765 5.39246345,11.4857074 6.30411749,12.0840227 C4.91860307,14.4473043 4.02591793,15.1020701 2.72360519,15.0191634 Z M10.2887618,10.2610307 L10.2887618,11.0995384 C9.42724086,11.0995384 8.66986959,10.5389597 7.75937182,10.091972 L8.27539923,9.06611307 C9.01890356,9.32751975 9.74854095,9.65 10.2887618,10.2610307 Z M9.40151719,5.63858269 C9.34066677,5.94224422 9.26249316,6.04801475 9.17692872,6.24105035 L9.13739318,6.2271834 C6.46945082,5.27784748 5.99177879,4.76676977 5.99177879,3.67128105 C5.99271429,3.49125963 6.03985207,3.31449298 6.128678,3.15790901 C7.26045681,3.79106786 9.64186038,4.43919935 9.40151719,5.63858269 Z M4.53545443,7.79477967 C4.05601216,7.00731417 3.97045015,6.51105454 3.97045015,6.0490197 C3.97045015,4.16636052 5.97319118,2.40230799 5.97319118,0.810559628 C5.25417529,2.96701723 2.87289614,3.53290664 2.87289614,5.58668983 C2.87289614,6.33934044 3.45707811,7.02442657 4.53545443,7.79477967 Z"
		/>
</svg>
