<?xml version="1.0" encoding="UTF-8"?>
<!DOCTYPE svg PUBLIC "-//W3C//DTD SVG 1.1//EN" "http://www.w3.org/Graphics/SVG/1.1/DTD/svg11.dtd">
<svg xmlns="http://www.w3.org/2000/svg" version="1.1" width="1200px" height="248px" style="shape-rendering:geometricPrecision; text-rendering:geometricPrecision; image-rendering:optimizeQuality; fill-rule:evenodd; clip-rule:evenodd" xmlns:xlink="http://www.w3.org/1999/xlink">
<g><path style="opacity:0.966" fill="#fefffe" d="M 181.5,21.5 C 209.149,17.7338 228.649,28.4005 240,53.5C 245.314,68.0493 248.48,83.0493 249.5,98.5C 239.522,99.4985 229.522,99.8319 219.5,99.5C 219.432,87.8897 216.265,77.2231 210,67.5C 198.667,55.5 187.333,55.5 176,67.5C 170.895,75.8103 167.562,84.8103 166,94.5C 161.907,118.49 163.24,142.157 170,165.5C 172.916,173.853 178.082,180.353 185.5,185C 194.119,187.681 201.619,185.848 208,179.5C 215.528,169.083 219.361,157.417 219.5,144.5C 229.5,144.5 239.5,144.5 249.5,144.5C 249.324,167.559 242.824,188.559 230,207.5C 215.457,222.514 197.957,227.347 177.5,222C 161.385,216.552 150.552,205.719 145,189.5C 139.961,175.602 136.961,161.269 136,146.5C 134.904,124.767 135.571,103.1 138,81.5C 140.236,66.7906 145.236,53.124 153,40.5C 160.316,30.7674 169.816,24.4341 181.5,21.5 Z"/></g>
<g><path style="opacity:0.966" fill="#fefffe" d="M 304.5,21.5 C 334.283,17.8057 354.783,29.8057 366,57.5C 370.917,71.0834 373.917,85.0834 375,99.5C 375.667,114.833 375.667,130.167 375,145.5C 374.071,167.283 367.738,187.283 356,205.5C 338.823,223.674 318.323,228.507 294.5,220C 277.262,210.41 266.429,195.91 262,176.5C 252.62,137.207 253.62,98.2074 265,59.5C 271.905,40.0914 285.071,27.4247 304.5,21.5 Z M 311.5,58.5 C 322.919,57.7938 331.419,62.4604 337,72.5C 350.168,104.214 350.835,136.214 339,168.5C 334.493,178.688 326.826,184.688 316,186.5C 307.315,185.806 300.648,181.806 296,174.5C 287.768,158.178 283.935,140.845 284.5,122.5C 284.228,108.115 286.394,94.1147 291,80.5C 294.464,69.8183 301.297,62.4849 311.5,58.5 Z"/></g>
<g><path style="opacity:0.966" fill="#fefffe" d="M 803.5,21.5 C 831.149,17.7338 850.649,28.4005 862,53.5C 867.314,68.0493 870.48,83.0493 871.5,98.5C 861.522,99.4985 851.522,99.8319 841.5,99.5C 841.432,87.8897 838.265,77.2231 832,67.5C 820.667,55.5 809.333,55.5 798,67.5C 792.895,75.8103 789.562,84.8103 788,94.5C 783.907,118.49 785.24,142.157 792,165.5C 794.916,173.853 800.082,180.353 807.5,185C 816.119,187.681 823.619,185.848 830,179.5C 837.528,169.083 841.361,157.417 841.5,144.5C 851.5,144.5 861.5,144.5 871.5,144.5C 871.324,167.559 864.824,188.559 852,207.5C 837.457,222.514 819.957,227.347 799.5,222C 783.385,216.552 772.552,205.719 767,189.5C 761.961,175.602 758.961,161.269 758,146.5C 756.904,124.767 757.571,103.1 760,81.5C 762.236,66.7906 767.236,53.124 775,40.5C 782.316,30.7674 791.816,24.4341 803.5,21.5 Z"/></g>
<g><path style="opacity:0.976" fill="#fefffe" d="M 34.5,26.5 C 65.8333,26.5 97.1667,26.5 128.5,26.5C 128.667,38.1714 128.5,49.8381 128,61.5C 107.5,101.167 87,140.833 66.5,180.5C 87.1559,181.5 107.823,181.833 128.5,181.5C 128.5,193.833 128.5,206.167 128.5,218.5C 95.8333,218.5 63.1667,218.5 30.5,218.5C 30.3335,206.829 30.5001,195.162 31,183.5C 51.5,143.833 72,104.167 92.5,64.5C 73.1782,63.5004 53.8448,63.1671 34.5,63.5C 34.5,51.1667 34.5,38.8333 34.5,26.5 Z"/></g>
<g><path style="opacity:0.988" fill="#fefffe" d="M 388.5,26.5 C 418.5,26.5 448.5,26.5 478.5,26.5C 478.5,38.8333 478.5,51.1667 478.5,63.5C 457.167,63.5 435.833,63.5 414.5,63.5C 414.5,76.8333 414.5,90.1667 414.5,103.5C 434.833,103.5 455.167,103.5 475.5,103.5C 475.5,115.167 475.5,126.833 475.5,138.5C 455.167,138.5 434.833,138.5 414.5,138.5C 414.5,152.833 414.5,167.167 414.5,181.5C 436.167,181.5 457.833,181.5 479.5,181.5C 479.5,193.833 479.5,206.167 479.5,218.5C 449.167,218.5 418.833,218.5 388.5,218.5C 388.5,154.5 388.5,90.5 388.5,26.5 Z"/></g>
<g><path style="opacity:0.984" fill="#fefffe" d="M 492.5,26.5 C 518.169,26.3334 543.835,26.5 569.5,27C 577.052,29.0219 582.552,33.5219 586,40.5C 594.741,63.4633 595.741,86.7967 589,110.5C 587.048,116.452 583.548,121.285 578.5,125C 583.829,129.145 586.995,134.645 588,141.5C 590.287,161.087 591.62,180.754 592,200.5C 592.721,206.606 593.888,212.606 595.5,218.5C 585.81,218.832 576.144,218.498 566.5,217.5C 565.811,215.556 565.311,213.556 565,211.5C 564.677,196.151 564.01,180.817 563,165.5C 562.338,160.175 560.505,155.342 557.5,151C 556.167,150.333 554.833,149.667 553.5,149C 541.838,148.5 530.171,148.333 518.5,148.5C 518.5,171.833 518.5,195.167 518.5,218.5C 509.833,218.5 501.167,218.5 492.5,218.5C 492.5,154.5 492.5,90.5 492.5,26.5 Z M 518.5,63.5 C 530.505,63.3335 542.505,63.5001 554.5,64C 559.052,65.5881 561.885,68.7548 563,73.5C 565.223,83.5954 564.89,93.5954 562,103.5C 560.542,105.96 558.709,108.127 556.5,110C 543.894,111.42 531.228,111.92 518.5,111.5C 518.5,95.5 518.5,79.5 518.5,63.5 Z"/></g>
<g><path style="opacity:0.988" fill="#fefffe" d="M 656.5,26.5 C 686.5,26.5 716.5,26.5 746.5,26.5C 746.5,38.8333 746.5,51.1667 746.5,63.5C 725.167,63.5 703.833,63.5 682.5,63.5C 682.5,76.8333 682.5,90.1667 682.5,103.5C 702.833,103.5 723.167,103.5 743.5,103.5C 743.5,115.167 743.5,126.833 743.5,138.5C 723.167,138.5 702.833,138.5 682.5,138.5C 682.5,152.833 682.5,167.167 682.5,181.5C 704.167,181.5 725.833,181.5 747.5,181.5C 747.5,193.833 747.5,206.167 747.5,218.5C 717.167,218.5 686.833,218.5 656.5,218.5C 656.5,154.5 656.5,90.5 656.5,26.5 Z"/></g>
<g><path style="opacity:0.988" fill="#fefffe" d="M 882.5,26.5 C 912.5,26.5 942.5,26.5 972.5,26.5C 972.5,38.8333 972.5,51.1667 972.5,63.5C 951.167,63.5 929.833,63.5 908.5,63.5C 908.5,76.8333 908.5,90.1667 908.5,103.5C 928.833,103.5 949.167,103.5 969.5,103.5C 969.5,115.167 969.5,126.833 969.5,138.5C 949.167,138.5 928.833,138.5 908.5,138.5C 908.5,152.833 908.5,167.167 908.5,181.5C 930.167,181.5 951.833,181.5 973.5,181.5C 973.5,193.833 973.5,206.167 973.5,218.5C 943.167,218.5 912.833,218.5 882.5,218.5C 882.5,154.5 882.5,90.5 882.5,26.5 Z"/></g>
<g><path style="opacity:0.988" fill="#fefffe" d="M 987.5,26.5 C 996.167,26.5 1004.83,26.5 1013.5,26.5C 1013.5,77.5 1013.5,128.5 1013.5,179.5C 1033.17,179.5 1052.83,179.5 1072.5,179.5C 1072.5,192.5 1072.5,205.5 1072.5,218.5C 1044.17,218.5 1015.83,218.5 987.5,218.5C 987.5,154.5 987.5,90.5 987.5,26.5 Z"/></g>
<g><path style="opacity:0.988" fill="#fefffe" d="M 1084.5,26.5 C 1093.17,26.5 1101.83,26.5 1110.5,26.5C 1110.5,77.5 1110.5,128.5 1110.5,179.5C 1130.17,179.5 1149.83,179.5 1169.5,179.5C 1169.5,192.5 1169.5,205.5 1169.5,218.5C 1141.17,218.5 1112.83,218.5 1084.5,218.5C 1084.5,154.5 1084.5,90.5 1084.5,26.5 Z"/></g>
</svg>
