<?xml version="1.0" encoding="UTF-8"?>
<!DOCTYPE svg PUBLIC "-//W3C//DTD SVG 1.1//EN" "http://www.w3.org/Graphics/SVG/1.1/DTD/svg11.dtd">
<svg xmlns="http://www.w3.org/2000/svg" version="1.1" width="1200px" height="1200px" style="shape-rendering:geometricPrecision; text-rendering:geometricPrecision; image-rendering:optimizeQuality; fill-rule:evenodd; clip-rule:evenodd" xmlns:xlink="http://www.w3.org/1999/xlink">
<g><path style="opacity:0.973" fill="#fefffe" d="M 234.5,92.5 C 479.167,92.5 723.833,92.5 968.5,92.5C 968.5,169.833 968.5,247.167 968.5,324.5C 880.499,324.333 792.499,324.5 704.5,325C 625.511,326.892 546.511,327.726 467.5,327.5C 467.926,372.86 467.26,418.193 465.5,463.5C 603.167,463.5 740.833,463.5 878.5,463.5C 878.006,473.624 878.839,483.624 881,493.5C 881.667,559.167 881.667,624.833 881,690.5C 879.954,692.09 878.787,693.59 877.5,695C 740.167,695.333 602.833,695.667 465.5,696C 465.826,754.394 465.492,812.894 464.5,871.5C 631.832,872.333 799.166,872.833 966.5,873C 967.796,876.909 968.463,881.075 968.5,885.5C 972.212,958.408 973.546,1031.41 972.5,1104.5C 916.806,1104.06 861.139,1105.06 805.5,1107.5C 616.25,1107.65 426.917,1107.49 237.5,1107C 236.667,1105.5 235.5,1104.33 234,1103.5C 231.875,1062.88 230.875,1022.21 231,981.5C 230.708,972.982 229.708,964.649 228,956.5C 227.167,918.496 227.333,880.496 228.5,842.5C 229.478,842.023 230.311,841.357 231,840.5C 232.4,837.26 233.567,833.927 234.5,830.5C 252.342,816.735 271.676,805.235 292.5,796C 348.27,760.455 404.603,725.955 461.5,692.5C 460.167,619.5 460.167,546.5 461.5,473.5C 457.413,475.042 453.413,476.875 449.5,479C 380.531,521.66 311.864,564.66 243.5,608C 240.736,608.532 238.07,609.366 235.5,610.5C 234.914,610.291 234.414,609.957 234,609.5C 231.611,438.509 230.945,267.509 232,96.5C 233.481,95.5291 234.315,94.1958 234.5,92.5 Z"/></g>
</svg>
