<?xml version="1.0" encoding="UTF-8"?>
<svg version="1.1" xmlns="http://www.w3.org/2000/svg" width="1080" height="559">
<path d="M0 0 C0.96204234 0.00291284 1.92408467 0.00582568 2.91527981 0.00882679 C3.92885522 0.00797237 4.94243063 0.00711794 5.98672044 0.00623763 C9.41087669 0.00457977 12.83498482 0.01010917 16.25913662 0.01555592 C18.70260279 0.01583775 21.14606905 0.01568013 23.58953518 0.01511341 C28.86446489 0.01488509 34.1393794 0.01773648 39.41430515 0.02335125 C47.04104415 0.0314641 54.66777716 0.03408125 62.29452001 0.03533924 C74.66716904 0.0375301 87.03981148 0.04419111 99.41245693 0.05364186 C111.43426649 0.0628151 123.45607427 0.06989636 135.47788662 0.07414967 C136.2183988 0.07441239 136.95891098 0.07467512 137.72186292 0.0749458 C141.43664195 0.0762508 145.15142098 0.07751452 148.86620003 0.0787577 C179.70413451 0.08913138 210.54205693 0.10757025 241.37998623 0.12908131 C241.37998623 25.53908131 241.37998623 50.94908131 241.37998623 77.12908131 C185.27998623 77.45908131 129.17998623 77.78908131 71.37998623 78.12908131 C71.04998623 93.96908131 70.71998623 109.80908131 70.37998623 126.12908131 C116.57998623 126.12908131 162.77998623 126.12908131 210.37998623 126.12908131 C211.50527234 139.63251472 211.50527234 139.63251472 211.50938076 145.35051686 C211.51253292 146.62771092 211.51568508 147.90490498 211.51893276 149.22080189 C211.51714452 150.56913498 211.51509395 151.91746774 211.51279873 153.26580006 C211.51347409 154.68114955 211.51444605 156.09649893 211.5156979 157.51184803 C211.51715862 160.44896785 211.51506969 163.38605691 211.51035732 166.32317311 C211.50460267 170.09380785 211.50798502 173.86437229 211.51392978 177.63500458 C211.51753033 180.54394783 211.51640017 183.45287416 211.51380199 186.3618179 C211.5131343 187.75374379 211.51395567 189.14567122 211.51628155 190.53759533 C211.5188059 192.46872514 211.51427985 194.39986036 211.50938076 196.33098561 C211.50858516 197.42952366 211.50778957 198.52806172 211.50696987 199.6598888 C211.37998623 202.12908131 211.37998623 202.12908131 210.37998623 203.12908131 C208.57037751 203.22549628 206.75696494 203.25095528 204.9447903 203.24933583 C203.76543407 203.25071049 202.58607784 203.25208515 201.37098354 203.25350147 C200.06547542 203.2499062 198.75996731 203.24631092 197.41489834 203.2426067 C196.03545805 203.24232483 194.65601761 203.24248256 193.27657741 203.2430492 C189.52054504 203.24333719 185.76454434 203.23744036 182.00851935 203.23047525 C178.08738578 203.22424182 174.16625155 203.22363792 170.24511379 203.22244984 C162.81487012 203.21933649 155.38464109 203.21112306 147.95440388 203.20110035 C137.91746281 203.18785411 127.88051777 203.18243933 117.84357017 203.17659813 C102.02236455 203.16718317 86.20118983 203.14726428 70.37998623 203.12908131 C70.37998623 178.04908131 70.37998623 152.96908131 70.37998623 127.12908131 C62.1050502 131.85761618 53.98459849 136.53127874 46.00498623 141.69158131 C44.10970982 142.90729373 42.21385485 144.12210456 40.31748623 145.33611256 C38.86342373 146.26737965 38.86342373 146.26737965 37.37998623 147.21746022 C29.33686503 152.34259359 21.22825596 157.36445877 13.13438076 162.40886647 C10.53431639 164.03269677 7.9385899 165.66317329 5.34482998 167.29705006 C4.59314541 167.76981373 3.84146084 168.2425774 3.06699795 168.72966725 C1.68861565 169.59705652 0.31127208 170.46609948 -1.06483799 171.33708912 C-5.50817672 174.12908131 -5.50817672 174.12908131 -6.62001377 174.12908131 C-6.75365641 159.98901983 -6.88404384 145.84893109 -7.0111652 131.70880944 C-7.07030908 125.13575179 -7.13038509 118.56270495 -7.19276768 111.98967701 C-7.45241616 84.55355577 -7.67132948 57.11755883 -7.70813328 29.68015057 C-7.71187053 27.13384873 -7.71719697 24.5875487 -7.72415501 22.04125363 C-7.73295305 18.53787849 -7.73516764 15.03456566 -7.73524815 11.53118092 C-7.73881825 10.48512873 -7.74238835 9.43907654 -7.74606663 8.3613258 C-7.74455097 7.41645621 -7.74303532 6.47158661 -7.74147373 5.4980846 C-7.74218624 4.67339145 -7.74289875 3.84869829 -7.74363285 2.99901444 C-7.45176396 -1.41596198 -3.54227976 0.00814536 0 0 Z " fill="#ffffff" transform="translate(45.620013773441315,61.870918691158295)"/>
<path d="M0 0 C3.3 0 6.6 0 10 0 C10.19031494 15.41642776 10.35211753 30.833109 10.5 46.25 C10.51187725 47.48694611 10.5237545 48.72389221 10.53599167 49.99832153 C11.12607079 112.49772872 11.08410232 174.99837485 11.0625 237.5 C11.06207577 238.76330957 11.06165154 240.02661915 11.06121445 241.32821083 C11.04998505 274.21881424 11.02963071 307.10940813 11 340 C9.52093108 340.02689216 8.04172517 340.04634621 6.5625 340.0625 C5.73878906 340.07410156 4.91507812 340.08570313 4.06640625 340.09765625 C2 340 2 340 1 339 C0.88974451 336.44921121 0.84503438 333.92493233 0.84178162 331.37315369 C0.83684346 330.56280037 0.83190531 329.75244705 0.82681751 328.91753757 C0.81134398 326.1741125 0.80304985 323.43071115 0.79467773 320.68725586 C0.78509971 318.72208037 0.77509239 316.75690693 0.76468754 314.79173565 C0.73745226 309.40069039 0.71651159 304.00963631 0.69668961 298.61855936 C0.67467489 292.89676299 0.64720415 287.17499252 0.6204834 281.45321655 C0.56994734 270.42211064 0.52507476 259.39098859 0.48234785 248.35984993 C0.44798261 239.51270795 0.41136814 230.66557781 0.37332153 221.81845093 C0.05617828 147.87878653 -0.1614394 73.94034542 0 0 Z " fill="#ffffff" transform="translate(331,64)"/>
<path d="M0 0 C3.3 0.33 6.6 0.66 10 1 C12.23721738 1.08198335 14.47612602 1.13040915 16.71484375 1.1328125 C17.89626953 1.13410156 19.07769531 1.13539062 20.29492188 1.13671875 C22.09799805 1.13091797 22.09799805 1.13091797 23.9375 1.125 C25.13568359 1.12886719 26.33386719 1.13273437 27.56835938 1.13671875 C34.77887693 1.12885988 41.82972345 0.76369809 49 0 C49 6.93 49 13.86 49 21 C45 20 45 20 43.21875 17.3125 C42.07291667 15.10416667 40.92708333 12.89583333 39.78125 10.6875 C38.30843674 7.85444913 38.30843674 7.85444913 35.88867188 7.33203125 C35.26541016 7.22246094 34.64214844 7.11289063 34 7 C33.87338254 13.49596379 33.78572654 19.99161036 33.7253418 26.48852539 C33.7001737 28.69925833 33.6660362 30.90990788 33.62280273 33.12036133 C33.56225321 36.29529367 33.5338133 39.46912761 33.51171875 42.64453125 C33.48591232 43.63524124 33.4601059 44.62595123 33.43351746 45.64668274 C33.43247104 48.19786567 33.45447715 50.50743179 34 53 C36.39202123 55.02608253 36.39202123 55.02608253 39 56 C39 56.99 39 57.98 39 59 C29.43 59 19.86 59 10 59 C9.67 58.34 9.34 57.68 9 57 C10 55 10 55 15 53 C15.33 37.82 15.66 22.64 16 7 C10.90508326 7.43075363 10.90508326 7.43075363 8.8671875 10.94140625 C8.18682301 12.13932428 7.52317016 13.34686071 6.875 14.5625 C5.66138157 16.79996255 4.41424713 18.87271195 3 21 C2.01 21 1.02 21 0 21 C0 14.07 0 7.14 0 0 Z " fill="#ffffff" transform="translate(374,73)"/>
<path d="M0 0 C8.91 0 17.82 0 27 0 C27 0.99 27 1.98 27 3 C25.02 3.99 25.02 3.99 23 5 C23 11.6 23 18.2 23 25 C26.96 25 30.92 25 35 25 C35.33 18.4 35.66 11.8 36 5 C33.525 4.01 33.525 4.01 31 3 C31 2.01 31 1.02 31 0 C39.91 0 48.82 0 58 0 C56 4 56 4 54 5 C53.67 20.51 53.34 36.02 53 52 C54.32 52.33 55.64 52.66 57 53 C57.33 53.99 57.66 54.98 58 56 C57 57 57 57 54.49975586 57.11352539 C53.41573486 57.10828857 52.33171387 57.10305176 51.21484375 57.09765625 C50.04501953 57.09443359 48.87519531 57.09121094 47.66992188 57.08789062 C46.43822266 57.07951172 45.20652344 57.07113281 43.9375 57.0625 C42.08415039 57.05573242 42.08415039 57.05573242 40.19335938 57.04882812 C37.12885883 57.03699608 34.06445279 57.02051173 31 57 C31.3125 55.125 31.3125 55.125 32 53 C32.99 52.34 33.98 51.68 35 51 C35.41480107 48.97112689 35.41480107 48.97112689 35.29296875 46.6484375 C35.28330078 45.79765625 35.27363281 44.946875 35.26367188 44.0703125 C35.23853516 43.18085937 35.21339844 42.29140625 35.1875 41.375 C35.17396484 40.4778125 35.16042969 39.580625 35.14648438 38.65625 C35.11107473 36.43724529 35.05726654 34.21854824 35 32 C30.71 31.67 26.42 31.34 22 31 C22.05988686 34.27281674 22.1468549 37.54100634 22.25 40.8125 C22.26417969 41.74126953 22.27835937 42.67003906 22.29296875 43.62695312 C22.32519531 44.51962891 22.35742188 45.41230469 22.390625 46.33203125 C22.41157227 47.15421143 22.43251953 47.9763916 22.45410156 48.82348633 C23.17958364 51.71600545 24.63059386 52.31434857 27 54 C27 54.99 27 55.98 27 57 C18.09 57 9.18 57 0 57 C1 53 1 53 4 51 C4.46394002 48.96916548 4.46394002 48.96916548 4.40405273 46.59790039 C4.42307899 45.23121971 4.42307899 45.23121971 4.44248962 43.83692932 C4.43955399 42.85046921 4.43661835 41.86400909 4.43359375 40.84765625 C4.44145653 39.33104652 4.44145653 39.33104652 4.44947815 37.78379822 C4.45590961 35.64274007 4.45454688 33.50164663 4.44604492 31.3605957 C4.43754262 28.07895101 4.46626924 24.7990503 4.49804688 21.51757812 C4.49965907 19.44010469 4.49908101 17.36262816 4.49609375 15.28515625 C4.50732773 14.30072037 4.51856171 13.31628448 4.53013611 12.30201721 C4.51606468 10.93060829 4.51606468 10.93060829 4.50170898 9.53149414 C4.50154282 8.72700333 4.50137665 7.92251251 4.50120544 7.09364319 C3.82091824 4.25193688 2.35174202 3.60289291 0 2 C0 1.34 0 0.68 0 0 Z " fill="#ffffff" transform="translate(427,75)"/>
<path d="M0 0 C14.85 0 29.7 0 45 0 C46.2062252 3.61867559 46.10816918 6.92506251 46.0625 10.6875 C46.05798828 11.38939453 46.05347656 12.09128906 46.04882812 12.81445312 C46.03706927 14.54300538 46.01913454 16.27151365 46 18 C44.21875 17.87890625 44.21875 17.87890625 42 17 C40.28125 14.27734375 40.28125 14.27734375 38.5 10.9375 C35.66502195 6.2356727 35.66502195 6.2356727 30.8125 4.20703125 C27.12199453 4.18739973 27.12199453 4.18739973 22 5 C22.33 11.6 22.66 18.2 23 25 C26.3 25 29.6 25 33 25 C35.23025247 22.6797907 35.23025247 22.6797907 36 20 C36.99 20.33 37.98 20.66 39 21 C39 25.95 39 30.9 39 36 C37.68 36 36.36 36 35 36 C34.67 34.35 34.34 32.7 34 31 C30.04 31 26.08 31 22 31 C22 37.93 22 44.86 22 52 C26.29 52 30.58 52 35 52 C35.66 50.35 36.32 48.7 37 47 C37.93160154 45.36775105 38.9113261 43.76201109 39.9375 42.1875 C40.44152344 41.39730469 40.94554687 40.60710937 41.46484375 39.79296875 C41.97144531 39.20128906 42.47804688 38.60960937 43 38 C43.99 38 44.98 38 46 38 C46.02697137 40.60423592 46.04682489 43.20819244 46.0625 45.8125 C46.07087891 46.55048828 46.07925781 47.28847656 46.08789062 48.04882812 C46.10259828 51.29922068 46.03531702 53.89404895 45 57 C30.15 57 15.3 57 0 57 C0.33 55.68 0.66 54.36 1 53 C2.98 52.505 2.98 52.505 5 52 C4.67 36.49 4.34 20.98 4 5 C2.68 4.34 1.36 3.68 0 3 C0 2.01 0 1.02 0 0 Z " fill="#ffffff" transform="translate(488,75)"/>
<path d="M0 0 C13.53 0 27.06 0 41 0 C41 5.61 41 11.22 41 17 C40.01 17 39.02 17 38 17 C36.28125 14.62890625 36.28125 14.62890625 34.5 11.5625 C32.19335613 7.16496008 32.19335613 7.16496008 28 5 C28 17.87 28 30.74 28 44 C29.65 44.66 31.3 45.32 33 46 C32.505 46.99 32.505 46.99 32 48 C24.41 48 16.82 48 9 48 C9 47.01 9 46.02 9 45 C10.32 44.34 11.64 43.68 13 43 C13 30.79 13 18.58 13 6 C8.94983123 6.56421677 8.94983123 6.56421677 7.296875 9.28515625 C6.78640625 10.20167969 6.2759375 11.11820313 5.75 12.0625 C5.22921875 12.98160156 4.7084375 13.90070313 4.171875 14.84765625 C3.59179688 15.91306641 3.59179688 15.91306641 3 17 C2.01 16.67 1.02 16.34 0 16 C0 10.72 0 5.44 0 0 Z " fill="#ffffff" transform="translate(466,209)"/>
<path d="M0 0 C0.79921875 0.09345703 1.5984375 0.18691406 2.421875 0.28320312 C3.246875 0.38697266 4.071875 0.49074219 4.921875 0.59765625 C6.18257812 0.74750977 6.18257812 0.74750977 7.46875 0.90039062 C9.53723777 1.14719883 11.60467072 1.40281909 13.671875 1.66015625 C14.5973913 5.30397219 14.6574967 7.83447074 13.734375 11.47265625 C13.53972656 12.26285156 13.34507812 13.05304688 13.14453125 13.8671875 C12.98855469 14.45886719 12.83257813 15.05054688 12.671875 15.66015625 C11.681875 15.66015625 10.691875 15.66015625 9.671875 15.66015625 C9.35734375 15.03367188 9.0428125 14.4071875 8.71875 13.76171875 C8.29078125 12.94445312 7.8628125 12.1271875 7.421875 11.28515625 C7.00421875 10.47304687 6.5865625 9.6609375 6.15625 8.82421875 C4.50370592 6.41498343 3.41222318 5.60215094 0.671875 4.66015625 C-2.01805553 4.96393677 -2.01805553 4.96393677 -4.328125 5.66015625 C-5.53246974 10.25336239 -5.53246974 10.25336239 -4.328125 14.66015625 C-2.34391241 15.37243769 -0.33845377 16.02531558 1.671875 16.66015625 C8.27796134 19.87477149 12.97335004 22.66852341 15.671875 29.66015625 C16.31467158 34.89435696 15.52462718 38.23347183 12.671875 42.66015625 C8.94154908 46.49706291 4.93799445 48.13017937 -0.328125 48.66015625 C-7.15862767 48.58500402 -12.8124379 47.83205195 -19.328125 45.66015625 C-18.668125 41.37015625 -18.008125 37.08015625 -17.328125 32.66015625 C-13.328125 33.66015625 -13.328125 33.66015625 -11.87109375 35.69140625 C-11.42378906 36.50609375 -10.97648438 37.32078125 -10.515625 38.16015625 C-8.05672714 42.14939262 -8.05672714 42.14939262 -3.578125 43.78515625 C-0.44056195 43.88825287 -0.44056195 43.88825287 1.671875 42.66015625 C2.73754601 40.17359056 2.70581201 38.81098741 2.109375 36.16015625 C-0.4901314 31.63927555 -4.88245375 29.85449918 -9.453125 27.72265625 C-13.74602135 25.6459779 -16.18919588 22.9380145 -18.328125 18.66015625 C-18.89457611 14.01711438 -18.74935814 10.53502508 -16.703125 6.28515625 C-12.19271701 1.29996847 -6.6060373 -0.80216167 0 0 Z " fill="#ffffff" transform="translate(936.328125,209.33984375)"/>
<path d="M0 0 C5.10863896 -0.0246501 10.21724359 -0.04283607 15.32592773 -0.05493164 C17.06519168 -0.05997204 18.80445136 -0.0668043 20.54370117 -0.07543945 C23.03825937 -0.08751792 25.53276173 -0.09323108 28.02734375 -0.09765625 C28.80963852 -0.10281754 29.59193329 -0.10797882 30.39793396 -0.11329651 C32.26567114 -0.11349226 34.13329204 -0.06199694 36 0 C37 1 37 1 37.09765625 4.16015625 C37.08605469 5.44792969 37.07445312 6.73570312 37.0625 8.0625 C37.05347656 9.35285156 37.04445313 10.64320313 37.03515625 11.97265625 C37.02355469 12.97167969 37.01195312 13.97070312 37 15 C36.01 15 35.02 15 34 15 C32.74609375 12.84765625 32.74609375 12.84765625 31.4375 10.0625 C29.27592031 6.08740455 29.27592031 6.08740455 25.38671875 4.11328125 C22.31856733 3.7962326 22.31856733 3.7962326 18 4 C18 9.94 18 15.88 18 22 C25.55710032 21.93664245 25.55710032 21.93664245 27.875 18.9375 C28.24625 18.298125 28.6175 17.65875 29 17 C29.66 17 30.32 17 31 17 C31 21.29 31 25.58 31 30 C28 29 28 29 26 26 C23.69 26 21.38 26 19 26 C18.67 31.61 18.34 37.22 18 43 C23.13458401 43.15913852 23.13458401 43.15913852 28 42 C30.05919716 39.50773457 31.37351103 37.07369146 32.74609375 34.15234375 C33.36677734 33.08693359 33.36677734 33.08693359 34 32 C34.99 32 35.98 32 37 32 C37.02685412 34.31243792 37.04632841 36.6249627 37.0625 38.9375 C37.07410156 40.22527344 37.08570313 41.51304687 37.09765625 42.83984375 C37 46 37 46 36 47 C33.3337397 47.08855161 30.69352886 47.11524673 28.02734375 47.09765625 C27.22970108 47.0962413 26.43205841 47.09482635 25.61024475 47.09336853 C23.05262565 47.08775316 20.49509282 47.07519812 17.9375 47.0625 C16.20768355 47.05748698 14.47786574 47.05292373 12.74804688 47.04882812 C8.49866447 47.03777875 4.24934688 47.02050386 0 47 C0.375 45.0625 0.375 45.0625 1 43 C1.99 42.505 1.99 42.505 3 42 C3.07403712 36.76728431 3.12854783 31.53487199 3.16479492 26.30175781 C3.17990173 24.52077933 3.20038835 22.73983816 3.22631836 20.95898438 C3.26261943 18.40225022 3.27970688 15.8460069 3.29296875 13.2890625 C3.30845261 12.49005524 3.32393646 11.69104797 3.33988953 10.86782837 C3.37576435 8.38935852 3.37576435 8.38935852 3 5 C2.01 4.34 1.02 3.68 0 3 C0 2.01 0 1.02 0 0 Z " fill="#ffffff" transform="translate(377,210)"/>
<path d="M0 0 C12.50454333 -1.82252453 12.50454333 -1.82252453 18.12890625 2.28515625 C20.55214347 4.78711921 22.67933153 7.50430851 24.74462891 10.30566406 C26.75210408 13.01509185 28.91597102 15.58709446 31.0625 18.1875 C32.13177734 19.53908203 32.13177734 19.53908203 33.22265625 20.91796875 C34.83388616 23.07940583 34.83388616 23.07940583 37 24 C36.67 17.73 36.34 11.46 36 5 C34.68 4.34 33.36 3.68 32 3 C32 2.01 32 1.02 32 0 C36.29 0 40.58 0 45 0 C44.34 1.32 43.68 2.64 43 4 C42.34 4 41.68 4 41 4 C41 17.86 41 31.72 41 46 C39.02 46.495 39.02 46.495 37 47 C29.66773006 41.91294334 21.61051944 32.1331701 18 24 C17.34 24 16.68 24 16 24 C14.4921875 22.5390625 14.4921875 22.5390625 12.875 20.625 C12.33617187 19.99851563 11.79734375 19.37203125 11.2421875 18.7265625 C10 17 10 17 10 15 C9.34 15 8.68 15 8 15 C8 24.24 8 33.48 8 43 C9.65 43.33 11.3 43.66 13 44 C13 44.99 13 45.98 13 47 C8.71 47 4.42 47 0 47 C0 46.01 0 45.02 0 44 C0.99 43.34 1.98 42.68 3 42 C3.30407393 39.18645558 3.42000562 36.59676546 3.3984375 33.78125 C3.40130768 32.96756958 3.40417786 32.15388916 3.40713501 31.31555176 C3.40917791 29.59398707 3.40363226 27.87239929 3.39111328 26.15087891 C3.3750621 23.51021606 3.39095357 20.87108379 3.41015625 18.23046875 C3.40817386 16.55989244 3.40433026 14.88931709 3.3984375 13.21875 C3.40754654 12.02965027 3.40754654 12.02965027 3.4168396 10.81652832 C3.42027285 8.35840057 3.42027285 8.35840057 3 5 C2.01 4.34 1.02 3.68 0 3 C0 2.01 0 1.02 0 0 Z " fill="#ffffff" transform="translate(419,210)"/>
<path d="M0 0 C4.02014331 -0.04970693 8.04016578 -0.08586387 12.06054688 -0.10986328 C13.4261385 -0.1198759 14.79170894 -0.13349005 16.15722656 -0.15087891 C18.12815912 -0.17533573 20.09925284 -0.1854572 22.0703125 -0.1953125 C23.25383301 -0.20578613 24.43735352 -0.21625977 25.65673828 -0.22705078 C32.34819277 0.22738566 36.28852936 2.50766753 41 7 C42.24234627 10.72703881 42.53316853 14.12905043 42 18 C39.17884131 23.54156171 39.17884131 23.54156171 35.75 24.875 C35.1725 24.91625 34.595 24.9575 34 25 C34 25.66 34 26.32 34 27 C34.598125 27.226875 35.19625 27.45375 35.8125 27.6875 C38.76738497 29.46043098 39.64499863 30.81574678 41 34 C41.23803601 37.01849924 41.17767861 39.97946367 41 43 C42.32 43.66 43.64 44.32 45 45 C44.505 45.99 44.505 45.99 44 47 C38.39 47 32.78 47 27 47 C26.8046875 43.484375 26.609375 39.96875 26.4140625 36.453125 C25.99843085 32.38065319 25.99843085 32.38065319 24 29 C22.02 28.34 20.04 27.68 18 27 C18 32.28 18 37.56 18 43 C19.32 43.66 20.64 44.32 22 45 C21.67 45.66 21.34 46.32 21 47 C14.07 47 7.14 47 0 47 C0 46.01 0 45.02 0 44 C0.99 43.34 1.98 42.68 3 42 C3.30407393 39.18645558 3.42000562 36.59676546 3.3984375 33.78125 C3.40130768 32.96756958 3.40417786 32.15388916 3.40713501 31.31555176 C3.40917791 29.59398707 3.40363226 27.87239929 3.39111328 26.15087891 C3.3750621 23.51021606 3.39095357 20.87108379 3.41015625 18.23046875 C3.40817386 16.55989244 3.40433026 14.88931709 3.3984375 13.21875 C3.40754654 12.02965027 3.40754654 12.02965027 3.4168396 10.81652832 C3.42027285 8.35840057 3.42027285 8.35840057 3 5 C2.01 4.34 1.02 3.68 0 3 C0 2.01 0 1.02 0 0 Z M18 4 C18 10.27 18 16.54 18 23 C23.58248112 23.60438648 23.58248112 23.60438648 25.8125 21.625 C28.48980623 17.96131779 28.44601171 14.39279459 28 10 C27.13353917 6.99844249 27.13353917 6.99844249 25 5 C22.69 4.67 20.38 4.34 18 4 Z " fill="#ffffff" transform="translate(510,210)"/>
<path d="M0 0 C5.10863896 -0.0246501 10.21724359 -0.04283607 15.32592773 -0.05493164 C17.06519168 -0.05997204 18.80445136 -0.0668043 20.54370117 -0.07543945 C23.03825937 -0.08751792 25.53276173 -0.09323108 28.02734375 -0.09765625 C28.80963852 -0.10281754 29.59193329 -0.10797882 30.39793396 -0.11329651 C32.26567114 -0.11349226 34.13329204 -0.06199694 36 0 C37 1 37 1 37.09765625 4.16015625 C37.08605469 5.44792969 37.07445312 6.73570312 37.0625 8.0625 C37.05347656 9.35285156 37.04445313 10.64320313 37.03515625 11.97265625 C37.02355469 12.97167969 37.01195312 13.97070312 37 15 C36.01 15 35.02 15 34 15 C32.74609375 12.84765625 32.74609375 12.84765625 31.4375 10.0625 C29.27592031 6.08740455 29.27592031 6.08740455 25.38671875 4.11328125 C22.31856733 3.7962326 22.31856733 3.7962326 18 4 C18 9.94 18 15.88 18 22 C25.55710032 21.93664245 25.55710032 21.93664245 27.875 18.9375 C28.24625 18.298125 28.6175 17.65875 29 17 C29.66 17 30.32 17 31 17 C31 21.29 31 25.58 31 30 C30.01 30 29.02 30 28 30 C27.505 27.525 27.505 27.525 27 25 C23.04 25.495 23.04 25.495 19 26 C18.67 31.61 18.34 37.22 18 43 C23.13458401 43.15913852 23.13458401 43.15913852 28 42 C30.05919716 39.50773457 31.37351103 37.07369146 32.74609375 34.15234375 C33.36677734 33.08693359 33.36677734 33.08693359 34 32 C34.99 32 35.98 32 37 32 C37.02685412 34.31243792 37.04632841 36.6249627 37.0625 38.9375 C37.07410156 40.22527344 37.08570313 41.51304687 37.09765625 42.83984375 C37 46 37 46 36 47 C33.3337397 47.08855161 30.69352886 47.11524673 28.02734375 47.09765625 C27.22970108 47.0962413 26.43205841 47.09482635 25.61024475 47.09336853 C23.05262565 47.08775316 20.49509282 47.07519812 17.9375 47.0625 C16.20768355 47.05748698 14.47786574 47.05292373 12.74804688 47.04882812 C8.49866447 47.03777875 4.24934688 47.02050386 0 47 C0 46.01 0 45.02 0 44 C0.99 43.34 1.98 42.68 3 42 C3.30407393 39.18645558 3.42000562 36.59676546 3.3984375 33.78125 C3.40130768 32.96756958 3.40417786 32.15388916 3.40713501 31.31555176 C3.40917791 29.59398707 3.40363226 27.87239929 3.39111328 26.15087891 C3.3750621 23.51021606 3.39095357 20.87108379 3.41015625 18.23046875 C3.40817386 16.55989244 3.40433026 14.88931709 3.3984375 13.21875 C3.40754654 12.02965027 3.40754654 12.02965027 3.4168396 10.81652832 C3.42027285 8.35840057 3.42027285 8.35840057 3 5 C2.01 4.34 1.02 3.68 0 3 C0 2.01 0 1.02 0 0 Z " fill="#ffffff" transform="translate(557,210)"/>
<path d="M0 0 C3.98347226 -0.07480519 7.96666594 -0.12890718 11.95068359 -0.16479492 C13.96336248 -0.18709408 15.97584584 -0.22523653 17.98828125 -0.26367188 C25.03085956 -0.31675664 30.67382474 -0.23611152 37 3 C40.50006922 6.58981458 41.87062128 9.285732 42.25 14.3125 C41.97084473 18.43004024 41.2830626 20.5754061 39 24 C31.92767874 29.45158097 26.66943646 29.09321975 18 29 C18 33.62 18 38.24 18 43 C19.65 43.33 21.3 43.66 23 44 C23 44.99 23 45.98 23 47 C15.41 47 7.82 47 0 47 C0.33 45.68 0.66 44.36 1 43 C1.99 42.505 1.99 42.505 3 42 C3.07403712 36.76728431 3.12854783 31.53487199 3.16479492 26.30175781 C3.17990173 24.52077933 3.20038835 22.73983816 3.22631836 20.95898438 C3.26261943 18.40225022 3.27970688 15.8460069 3.29296875 13.2890625 C3.30845261 12.49005524 3.32393646 11.69104797 3.33988953 10.86782837 C3.37576435 8.38935852 3.37576435 8.38935852 3 5 C2.01 4.34 1.02 3.68 0 3 C0 2.01 0 1.02 0 0 Z M18 4 C18 10.93 18 17.86 18 25 C24.61099864 25.811325 24.61099864 25.811325 26.9375 23.125 C28.7937836 17.66534235 28.82971519 12.39153202 26.9375 6.9375 C24.61875 4.23125 24.61875 4.23125 18 4 Z " fill="#ffffff" transform="translate(599,210)"/>
<path d="M0 0 C3.98347226 -0.07480519 7.96666594 -0.12890718 11.95068359 -0.16479492 C13.96336248 -0.18709408 15.97584584 -0.22523653 17.98828125 -0.26367188 C25.02879818 -0.3167411 30.67779661 -0.24176164 37 3 C40.17186374 6.33452342 41.89577528 8.64507858 42.25 13.25 C41.97622754 17.35658692 41.29425548 19.59817292 39 23 C36.3125 24.375 36.3125 24.375 34 25 C34 25.66 34 26.32 34 27 C34.928125 27.433125 34.928125 27.433125 35.875 27.875 C38.20171294 29.1067892 39.66048487 30.11726067 40.625 32.625 C41.17401025 36.10206489 41.05864914 39.48105143 41 43 C42.32 43.66 43.64 44.32 45 45 C45 45.66 45 46.32 45 47 C39.06 47 33.12 47 27 47 C26.8046875 43.484375 26.609375 39.96875 26.4140625 36.453125 C25.99843085 32.38065319 25.99843085 32.38065319 24 29 C22.02 28.34 20.04 27.68 18 27 C18 32.28 18 37.56 18 43 C19.485 43.495 19.485 43.495 21 44 C21 44.99 21 45.98 21 47 C14.07 47 7.14 47 0 47 C0 46.01 0 45.02 0 44 C0.99 43.34 1.98 42.68 3 42 C3.30407393 39.18645558 3.42000562 36.59676546 3.3984375 33.78125 C3.40130768 32.96756958 3.40417786 32.15388916 3.40713501 31.31555176 C3.40917791 29.59398707 3.40363226 27.87239929 3.39111328 26.15087891 C3.3750621 23.51021606 3.39095357 20.87108379 3.41015625 18.23046875 C3.40817386 16.55989244 3.40433026 14.88931709 3.3984375 13.21875 C3.40754654 12.02965027 3.40754654 12.02965027 3.4168396 10.81652832 C3.42027285 8.35840057 3.42027285 8.35840057 3 5 C2.01 4.34 1.02 3.68 0 3 C0 2.01 0 1.02 0 0 Z M18 4 C18 10.27 18 16.54 18 23 C23.58248112 23.60438648 23.58248112 23.60438648 25.8125 21.625 C28.48980623 17.96131779 28.44601171 14.39279459 28 10 C27.13353917 6.99844249 27.13353917 6.99844249 25 5 C22.69 4.67 20.38 4.34 18 4 Z " fill="#ffffff" transform="translate(643,210)"/>
<path d="M0 0 C12.21 0 24.42 0 37 0 C37 4.95 37 9.9 37 15 C36.01 15 35.02 15 34 15 C32.74609375 12.84765625 32.74609375 12.84765625 31.4375 10.0625 C29.27592031 6.08740455 29.27592031 6.08740455 25.38671875 4.11328125 C22.31856733 3.7962326 22.31856733 3.7962326 18 4 C18 9.94 18 15.88 18 22 C25.55710032 21.93664245 25.55710032 21.93664245 27.875 18.9375 C28.24625 18.298125 28.6175 17.65875 29 17 C29.66 17 30.32 17 31 17 C31 21.29 31 25.58 31 30 C28 29 28 29 26 26 C23.69 26 21.38 26 19 26 C18.67 31.61 18.34 37.22 18 43 C23.13458401 43.15913852 23.13458401 43.15913852 28 42 C30.05919716 39.50773457 31.37351103 37.07369146 32.74609375 34.15234375 C33.36677734 33.08693359 33.36677734 33.08693359 34 32 C34.99 32 35.98 32 37 32 C37.02685412 34.31243792 37.04632841 36.6249627 37.0625 38.9375 C37.07410156 40.22527344 37.08570313 41.51304687 37.09765625 42.83984375 C37 46 37 46 36 47 C33.3337397 47.08855161 30.69352886 47.11524673 28.02734375 47.09765625 C27.22970108 47.0962413 26.43205841 47.09482635 25.61024475 47.09336853 C23.05262565 47.08775316 20.49509282 47.07519812 17.9375 47.0625 C16.20768355 47.05748698 14.47786574 47.05292373 12.74804688 47.04882812 C8.49866447 47.03777875 4.24934688 47.02050386 0 47 C0 46.01 0 45.02 0 44 C0.99 43.34 1.98 42.68 3 42 C3.30407393 39.18645558 3.42000562 36.59676546 3.3984375 33.78125 C3.40130768 32.96756958 3.40417786 32.15388916 3.40713501 31.31555176 C3.40917791 29.59398707 3.40363226 27.87239929 3.39111328 26.15087891 C3.3750621 23.51021606 3.39095357 20.87108379 3.41015625 18.23046875 C3.40817386 16.55989244 3.40433026 14.88931709 3.3984375 13.21875 C3.40754654 12.02965027 3.40754654 12.02965027 3.4168396 10.81652832 C3.42027285 8.35840057 3.42027285 8.35840057 3 5 C2.01 4.34 1.02 3.68 0 3 C0 2.01 0 1.02 0 0 Z " fill="#ffffff" transform="translate(691,210)"/>
<path d="M0 0 C12.50454333 -1.82252453 12.50454333 -1.82252453 18.12890625 2.28515625 C20.55214347 4.78711921 22.67933153 7.50430851 24.74462891 10.30566406 C26.75210408 13.01509185 28.91597102 15.58709446 31.0625 18.1875 C32.13177734 19.53908203 32.13177734 19.53908203 33.22265625 20.91796875 C34.83388616 23.07940583 34.83388616 23.07940583 37 24 C36.67 17.73 36.34 11.46 36 5 C34.68 4.34 33.36 3.68 32 3 C32 2.01 32 1.02 32 0 C35.96 0 39.92 0 44 0 C44 0.99 44 1.98 44 3 C43.01 3.33 42.02 3.66 41 4 C41 17.86 41 31.72 41 46 C38.525 46.495 38.525 46.495 36 47 C35.47792969 46.34515625 34.95585938 45.6903125 34.41796875 45.015625 C30.19305794 39.77703156 25.88143921 34.689097 21.3125 29.75 C20.8469873 29.24645996 20.38147461 28.74291992 19.90185547 28.22412109 C19.44955566 27.73508301 18.99725586 27.24604492 18.53125 26.7421875 C10 17.5 10 17.5 10 15 C7.73160023 16.83955978 7.73160023 16.83955978 7.77294922 19.61376953 C7.78342285 20.69255371 7.79389648 21.77133789 7.8046875 22.8828125 C7.81113281 24.04941406 7.81757812 25.21601563 7.82421875 26.41796875 C7.84097656 27.64128906 7.85773437 28.86460937 7.875 30.125 C7.88402344 31.35605469 7.89304687 32.58710938 7.90234375 33.85546875 C7.92597452 36.90383815 7.95891946 39.95182382 8 43 C9.65 43.66 11.3 44.32 13 45 C12.67 45.66 12.34 46.32 12 47 C8.04 47 4.08 47 0 47 C0 46.01 0 45.02 0 44 C0.99 43.34 1.98 42.68 3 42 C3.30407393 39.18645558 3.42000562 36.59676546 3.3984375 33.78125 C3.40130768 32.96756958 3.40417786 32.15388916 3.40713501 31.31555176 C3.40917791 29.59398707 3.40363226 27.87239929 3.39111328 26.15087891 C3.3750621 23.51021606 3.39095357 20.87108379 3.41015625 18.23046875 C3.40817386 16.55989244 3.40433026 14.88931709 3.3984375 13.21875 C3.40754654 12.02965027 3.40754654 12.02965027 3.4168396 10.81652832 C3.42027285 8.35840057 3.42027285 8.35840057 3 5 C2.01 4.34 1.02 3.68 0 3 C0 2.01 0 1.02 0 0 Z " fill="#ffffff" transform="translate(732,210)"/>
<path d="M0 0 C5.10863896 -0.0246501 10.21724359 -0.04283607 15.32592773 -0.05493164 C17.06519168 -0.05997204 18.80445136 -0.0668043 20.54370117 -0.07543945 C23.03825937 -0.08751792 25.53276173 -0.09323108 28.02734375 -0.09765625 C28.80963852 -0.10281754 29.59193329 -0.10797882 30.39793396 -0.11329651 C32.26567114 -0.11349226 34.13329204 -0.06199694 36 0 C37 1 37 1 37.09765625 4.16015625 C37.08605469 5.44792969 37.07445312 6.73570312 37.0625 8.0625 C37.05347656 9.35285156 37.04445313 10.64320313 37.03515625 11.97265625 C37.02355469 12.97167969 37.01195312 13.97070312 37 15 C33.84555525 13.65194669 32.18777177 12.32292677 30.25 9.5 C29.82203125 8.8915625 29.3940625 8.283125 28.953125 7.65625 C28 6 28 6 28 4 C24.7 4 21.4 4 18 4 C18 9.94 18 15.88 18 22 C25.55710032 21.93664245 25.55710032 21.93664245 27.875 18.9375 C28.24625 18.298125 28.6175 17.65875 29 17 C29.66 17 30.32 17 31 17 C31 21.29 31 25.58 31 30 C28 29 28 29 26 26 C23.69 26 21.38 26 19 26 C18.67 31.61 18.34 37.22 18 43 C23.13458401 43.15913852 23.13458401 43.15913852 28 42 C30.05919716 39.50773457 31.37351103 37.07369146 32.74609375 34.15234375 C33.36677734 33.08693359 33.36677734 33.08693359 34 32 C34.99 32 35.98 32 37 32 C37.02685412 34.31243792 37.04632841 36.6249627 37.0625 38.9375 C37.07410156 40.22527344 37.08570313 41.51304687 37.09765625 42.83984375 C37 46 37 46 36 47 C33.3337397 47.08855161 30.69352886 47.11524673 28.02734375 47.09765625 C27.22970108 47.0962413 26.43205841 47.09482635 25.61024475 47.09336853 C23.05262565 47.08775316 20.49509282 47.07519812 17.9375 47.0625 C16.20768355 47.05748698 14.47786574 47.05292373 12.74804688 47.04882812 C8.49866447 47.03777875 4.24934688 47.02050386 0 47 C0 46.01 0 45.02 0 44 C0.99 43.34 1.98 42.68 3 42 C3.30407393 39.18645558 3.42000562 36.59676546 3.3984375 33.78125 C3.40130768 32.96756958 3.40417786 32.15388916 3.40713501 31.31555176 C3.40917791 29.59398707 3.40363226 27.87239929 3.39111328 26.15087891 C3.3750621 23.51021606 3.39095357 20.87108379 3.41015625 18.23046875 C3.40817386 16.55989244 3.40433026 14.88931709 3.3984375 13.21875 C3.40754654 12.02965027 3.40754654 12.02965027 3.4168396 10.81652832 C3.42027285 8.35840057 3.42027285 8.35840057 3 5 C2.01 4.34 1.02 3.68 0 3 C0 2.01 0 1.02 0 0 Z " fill="#ffffff" transform="translate(780,210)"/>
<path d="M0 0 C7.59 0 15.18 0 23 0 C22.34 1.32 21.68 2.64 21 4 C20.01 4 19.02 4 18 4 C18.04417668 8.76955757 18.11403164 13.53779423 18.20751953 18.30664062 C18.23571347 19.92827837 18.25693594 21.55005313 18.27099609 23.171875 C18.29244872 25.50592105 18.33910575 27.83832261 18.390625 30.171875 C18.39185364 30.89493835 18.39308228 31.61800171 18.39434814 32.36297607 C18.49290625 35.76378443 18.77267735 37.69287648 20.81933594 40.45800781 C24.01851687 42.72021412 26.1805348 42.54563789 30 42 C32.36497439 40.13291495 33.66030715 38.67938569 35 36 C35.15608023 33.59439727 35.25804458 31.21297228 35.31640625 28.8046875 C35.33718735 28.09724396 35.35796844 27.38980042 35.37937927 26.66091919 C35.44481078 24.39904575 35.50372974 22.13705538 35.5625 19.875 C35.60569133 18.34243578 35.64930582 16.80988343 35.69335938 15.27734375 C35.80048555 11.51834927 35.9017709 7.75923708 36 4 C33.525 3.505 33.525 3.505 31 3 C31 2.01 31 1.02 31 0 C35.29 0 39.58 0 44 0 C44 0.99 44 1.98 44 3 C42.68 3.33 41.36 3.66 40 4 C40.01571045 4.9379541 40.0314209 5.8759082 40.04760742 6.84228516 C40.09891965 10.34234205 40.13643872 13.8419957 40.16479492 17.34228516 C40.17982543 18.85341727 40.20025564 20.36450618 40.22631836 21.87548828 C40.26295689 24.05512187 40.27978338 26.23417575 40.29296875 28.4140625 C40.3086792 29.7232666 40.32438965 31.0324707 40.34057617 32.38134766 C39.83858818 37.71501508 38.00808583 40.89356433 34.4375 44.8125 C29.74821433 48.41071425 24.20351636 48.28892473 18.53125 47.77734375 C13.27654072 46.87528532 10.34779195 45.33243664 7 41 C4.33294122 36.47118512 3.62435823 33.15727335 3.59375 27.921875 C3.58291382 27.26922668 3.57207764 26.61657837 3.56091309 25.94415283 C3.51531022 23.17572729 3.50349684 20.4074062 3.48876953 17.63867188 C3.47312502 15.60773012 3.44016548 13.57758023 3.40625 11.546875 C3.39916016 10.33870117 3.39207031 9.13052734 3.38476562 7.88574219 C3.25779297 6.93344727 3.13082031 5.98115234 3 5 C2.01 4.34 1.02 3.68 0 3 C0 2.01 0 1.02 0 0 Z " fill="#ffffff" transform="translate(822,210)"/>
<path d="M0 0 C4.02014331 -0.04970693 8.04016578 -0.08586387 12.06054688 -0.10986328 C13.4261385 -0.1198759 14.79170894 -0.13349005 16.15722656 -0.15087891 C18.12815912 -0.17533573 20.09925284 -0.1854572 22.0703125 -0.1953125 C23.25383301 -0.20578613 24.43735352 -0.21625977 25.65673828 -0.22705078 C32.34819277 0.22738566 36.28852936 2.50766753 41 7 C42.24234627 10.72703881 42.53316853 14.12905043 42 18 C39.17884131 23.54156171 39.17884131 23.54156171 35.75 24.875 C35.1725 24.91625 34.595 24.9575 34 25 C34 25.66 34 26.32 34 27 C34.598125 27.226875 35.19625 27.45375 35.8125 27.6875 C38.76738497 29.46043098 39.64499863 30.81574678 41 34 C41.23803601 37.01849924 41.17767861 39.97946367 41 43 C42.32 43.66 43.64 44.32 45 45 C44.505 45.99 44.505 45.99 44 47 C38.39 47 32.78 47 27 47 C26.8046875 43.484375 26.609375 39.96875 26.4140625 36.453125 C25.99843085 32.38065319 25.99843085 32.38065319 24 29 C22.02 28.34 20.04 27.68 18 27 C18 32.28 18 37.56 18 43 C19.32 43.66 20.64 44.32 22 45 C21.67 45.66 21.34 46.32 21 47 C14.07 47 7.14 47 0 47 C0 46.01 0 45.02 0 44 C0.99 43.34 1.98 42.68 3 42 C3.30407393 39.18645558 3.42000562 36.59676546 3.3984375 33.78125 C3.40130768 32.96756958 3.40417786 32.15388916 3.40713501 31.31555176 C3.40917791 29.59398707 3.40363226 27.87239929 3.39111328 26.15087891 C3.3750621 23.51021606 3.39095357 20.87108379 3.41015625 18.23046875 C3.40817386 16.55989244 3.40433026 14.88931709 3.3984375 13.21875 C3.40754654 12.02965027 3.40754654 12.02965027 3.4168396 10.81652832 C3.42027285 8.35840057 3.42027285 8.35840057 3 5 C2.01 4.34 1.02 3.68 0 3 C0 2.01 0 1.02 0 0 Z M18 4 C18 10.27 18 16.54 18 23 C23.58248112 23.60438648 23.58248112 23.60438648 25.8125 21.625 C28.48980623 17.96131779 28.44601171 14.39279459 28 10 C27.13353917 6.99844249 27.13353917 6.99844249 25 5 C22.69 4.67 20.38 4.34 18 4 Z " fill="#ffffff" transform="translate(870,210)"/>
<path d="M0 0 C6.93 0 13.86 0 21 0 C21 0.99 21 1.98 21 3 C20.01 3.33 19.02 3.66 18 4 C18 9.94 18 15.88 18 22 C21.3 21.67 24.6 21.34 28 21 C28.08074203 18.37438891 28.1403623 15.75124324 28.1875 13.125 C28.21263672 12.37863281 28.23777344 11.63226563 28.26367188 10.86328125 C28.3298764 8.43778172 28.3298764 8.43778172 28 5 C27.01 4.34 26.02 3.68 25 3 C25 2.01 25 1.02 25 0 C31.93 0 38.86 0 46 0 C46 0.99 46 1.98 46 3 C45.01 3.33 44.02 3.66 43 4 C43 16.87 43 29.74 43 43 C44.32 43.66 45.64 44.32 47 45 C46.505 45.99 46.505 45.99 46 47 C39.07 47 32.14 47 25 47 C25 46.01 25 45.02 25 44 C25.99 43.34 26.98 42.68 28 42 C28.22107787 39.2114711 28.28107535 36.65346819 28.1875 33.875 C28.17396484 33.12089844 28.16042969 32.36679688 28.14648438 31.58984375 C28.11109985 29.72625873 28.05729167 27.86304022 28 26 C25.03 26 22.06 26 19 26 C18.67 31.61 18.34 37.22 18 43 C19.32 43.66 20.64 44.32 22 45 C21.67 45.66 21.34 46.32 21 47 C14.07 47 7.14 47 0 47 C0 46.01 0 45.02 0 44 C0.99 43.34 1.98 42.68 3 42 C3.30407393 39.18645558 3.42000562 36.59676546 3.3984375 33.78125 C3.40130768 32.96756958 3.40417786 32.15388916 3.40713501 31.31555176 C3.40917791 29.59398707 3.40363226 27.87239929 3.39111328 26.15087891 C3.3750621 23.51021606 3.39095357 20.87108379 3.41015625 18.23046875 C3.40817386 16.55989244 3.40433026 14.88931709 3.3984375 13.21875 C3.40754654 12.02965027 3.40754654 12.02965027 3.4168396 10.81652832 C3.42027285 8.35840057 3.42027285 8.35840057 3 5 C2.01 4.34 1.02 3.68 0 3 C0 2.01 0 1.02 0 0 Z " fill="#ffffff" transform="translate(955,210)"/>
<path d="M0 0 C6.93 0 13.86 0 21 0 C21 0.99 21 1.98 21 3 C20.01 3.33 19.02 3.66 18 4 C18 16.87 18 29.74 18 43 C19.32 43.66 20.64 44.32 22 45 C21.67 45.66 21.34 46.32 21 47 C14.07 47 7.14 47 0 47 C0 46.01 0 45.02 0 44 C0.99 43.34 1.98 42.68 3 42 C3.26660183 39.09165115 3.34779124 36.39861732 3.29296875 33.4921875 C3.28872391 32.65156769 3.28447906 31.81094788 3.28010559 30.94485474 C3.26328532 28.25458007 3.22562781 25.56504901 3.1875 22.875 C3.17245745 21.05339622 3.1587683 19.23178072 3.14648438 17.41015625 C3.11337094 12.93981676 3.06156637 8.47003454 3 4 C2.01 3.67 1.02 3.34 0 3 C0 2.01 0 1.02 0 0 Z " fill="#ffffff" transform="translate(1005,210)"/>
<path d="M0 0 C4.02014331 -0.04970693 8.04016578 -0.08586387 12.06054688 -0.10986328 C13.4261385 -0.1198759 14.79170894 -0.13349005 16.15722656 -0.15087891 C18.12815912 -0.17533573 20.09925284 -0.1854572 22.0703125 -0.1953125 C23.25383301 -0.20578613 24.43735352 -0.21625977 25.65673828 -0.22705078 C31.53624565 0.17224394 35.76628419 1.88388741 40 6 C42.25371975 9.97083957 42.39556434 13.49056654 42 18 C40.26005719 22.67037281 38.15827629 25.26162293 34 28 C28.89478359 29.73554818 23.30682355 29.05768286 18 29 C18 33.62 18 38.24 18 43 C19.65 43.33 21.3 43.66 23 44 C23 44.99 23 45.98 23 47 C15.41 47 7.82 47 0 47 C0 46.01 0 45.02 0 44 C0.99 43.34 1.98 42.68 3 42 C3.30407393 39.18645558 3.42000562 36.59676546 3.3984375 33.78125 C3.40130768 32.96756958 3.40417786 32.15388916 3.40713501 31.31555176 C3.40917791 29.59398707 3.40363226 27.87239929 3.39111328 26.15087891 C3.3750621 23.51021606 3.39095357 20.87108379 3.41015625 18.23046875 C3.40817386 16.55989244 3.40433026 14.88931709 3.3984375 13.21875 C3.40754654 12.02965027 3.40754654 12.02965027 3.4168396 10.81652832 C3.42027285 8.35840057 3.42027285 8.35840057 3 5 C2.01 4.34 1.02 3.68 0 3 C0 2.01 0 1.02 0 0 Z M18 4 C18 10.93 18 17.86 18 25 C23.58248112 25.60438648 23.58248112 25.60438648 25.8125 23.625 C28.71657684 19.65100012 28.42349785 15.76235315 28 11 C27.15780866 7.47743382 27.15780866 7.47743382 25 5 C22.69 4.67 20.38 4.34 18 4 Z " fill="#ffffff" transform="translate(1030,210)"/>
<path d="M0 0 C0 20.13 0 40.26 0 61 C56.43 61 112.86 61 171 61 C171.33 86.41 171.66 111.82 172 138 C138.30915528 138.26468677 138.30915528 138.26468677 126.05883789 138.35595703 C125.28756754 138.36170439 124.51629719 138.36745175 123.72165501 138.37337327 C72.62405301 138.75335528 21.52712957 139.10726134 -29.57211304 139.12338257 C-32.94439989 139.12500332 -36.31668005 139.12855909 -39.68896484 139.13256836 C-44.90975431 139.13831674 -50.13051442 139.13873008 -55.35130501 139.13431931 C-57.23997036 139.13332548 -59.12863729 139.13390336 -61.01730156 139.13615799 C-63.55315192 139.13867113 -66.08891233 139.1349736 -68.62475586 139.12939453 C-69.36773674 139.13142128 -70.11071762 139.13344803 -70.87621307 139.13553619 C-75.88562846 139.11437154 -75.88562846 139.11437154 -77 138 C-77.19634177 135.2348293 -77.32727542 132.49279098 -77.41503906 129.72338867 C-77.44570465 128.85494324 -77.47637024 127.9864978 -77.50796509 127.09173584 C-77.77705626 119.04465153 -77.93863753 110.99528652 -78.06656265 102.94483471 C-78.15431213 97.53665347 -78.27785452 92.13465025 -78.48828125 86.72973633 C-78.69083026 81.50186721 -78.79837508 76.2796809 -78.84160614 71.04815102 C-78.87400946 69.06161174 -78.93940602 67.0753082 -79.03943634 65.0910244 C-79.6466411 52.48433548 -79.6466411 52.48433548 -77 47 C-72.37620519 42.00955168 -66.35768167 39.01929845 -60.28810406 36.12311935 C-57.14269696 34.5791915 -54.28364663 32.74375495 -51.3515625 30.828125 C-49.44309881 29.63479196 -47.53425328 28.44206934 -45.625 27.25 C-44.60607666 26.61368652 -43.58715332 25.97737305 -42.53735352 25.32177734 C-25.1621622 14.4784146 -25.1621622 14.4784146 -17.03125 9.62890625 C-16.35070557 9.22269043 -15.67016113 8.81647461 -14.96899414 8.39794922 C-13.65446123 7.61469551 -12.33862522 6.83362292 -11.02124023 6.05517578 C-8.4849993 4.54625125 -6.03915503 3.02987972 -3.69140625 1.23828125 C-2 0 -2 0 0 0 Z " fill="#ffffff" transform="translate(116,266)"/>
<path d="M0 0 C-0.33 4.29 -0.66 8.58 -1 13 C-5.33048221 11.91737945 -5.89817049 11.35863919 -8.5625 8.0625 C-11.5807429 4.35859835 -13.4613766 2.16784983 -18.4375 1.625 C-22.02058811 1.6899237 -22.02058811 1.6899237 -24.375 3.8125 C-28.42699293 9.26710587 -27.63681246 16.53170268 -27 23 C-25.44560963 27.28263571 -23.11968531 30.00472417 -19.75 33 C-15.77625982 34.44499643 -12.17466445 34.70682149 -8 34 C-4.69140528 32.04543223 -4.69140528 32.04543223 -2 30 C-1.01 30.33 -0.02 30.66 1 31 C-0.5050021 36.39292419 -2.11912473 40.30473634 -7.09765625 43.234375 C-13.5814616 46.23480474 -19.0526731 46.52315211 -26 45 C-32.52353583 42.58387562 -36.84535789 38.15155212 -40 32 C-42.59715144 23.86586597 -41.82892492 14.52581794 -38 7 C-29.33238172 -6.65806517 -13.41531363 -3.78785326 0 0 Z " fill="#ffffff" transform="translate(423,345)"/>
<path d="M0 0 C12.21 0 24.42 0 37 0 C37 4.95 37 9.9 37 15 C31.98546093 12.49273047 31.4394358 10.87887159 29 6 C29 5.34 29 4.68 29 4 C25.37 4 21.74 4 18 4 C18 9.61 18 15.22 18 21 C19.44375 20.896875 20.8875 20.79375 22.375 20.6875 C23.18710937 20.62949219 23.99921875 20.57148438 24.8359375 20.51171875 C27.37921338 20.17009472 27.37921338 20.17009472 29 17 C29.66 17 30.32 17 31 17 C31 21.29 31 25.58 31 30 C30.01 29.67 29.02 29.34 28 29 C28 28.01 28 27.02 28 26 C24.7 25.67 21.4 25.34 18 25 C18 30.94 18 36.88 18 43 C21.63 43 25.26 43 29 43 C29.2475 42.113125 29.495 41.22625 29.75 40.3125 C31.04964625 36.86843744 32.48729227 34.66975197 35 32 C35.66 32 36.32 32 37 32 C37 36.95 37 41.9 37 47 C24.79 47 12.58 47 0 47 C0 46.01 0 45.02 0 44 C0.99 43.34 1.98 42.68 3 42 C3.30407393 39.18645558 3.42000562 36.59676546 3.3984375 33.78125 C3.40130768 32.96756958 3.40417786 32.15388916 3.40713501 31.31555176 C3.40917791 29.59398707 3.40363226 27.87239929 3.39111328 26.15087891 C3.3750621 23.51021606 3.39095357 20.87108379 3.41015625 18.23046875 C3.40817386 16.55989244 3.40433026 14.88931709 3.3984375 13.21875 C3.40754654 12.02965027 3.40754654 12.02965027 3.4168396 10.81652832 C3.42027285 8.35840057 3.42027285 8.35840057 3 5 C2.01 4.34 1.02 3.68 0 3 C0 2.01 0 1.02 0 0 Z " fill="#ffffff" transform="translate(427,343)"/>
<path d="M0 0 C7.26 0 14.52 0 22 0 C21 3 21 3 19 4 C18.67 16.87 18.34 29.74 18 43 C26.45494801 42.97727977 26.45494801 42.97727977 29.41015625 39.71484375 C29.95542969 38.79832031 30.50070312 37.88179688 31.0625 36.9375 C31.63097656 36.01839844 32.19945312 35.09929687 32.78515625 34.15234375 C33.18605469 33.44207031 33.58695312 32.73179687 34 32 C34.99 32.33 35.98 32.66 37 33 C37.02705729 34.77074917 37.04642195 36.54161711 37.0625 38.3125 C37.07410156 39.29863281 37.08570313 40.28476562 37.09765625 41.30078125 C37 44 37 44 36 47 C24.12 47 12.24 47 0 47 C0.33 45.68 0.66 44.36 1 43 C1.99 42.505 1.99 42.505 3 42 C3.07403712 36.76728431 3.12854783 31.53487199 3.16479492 26.30175781 C3.17990173 24.52077933 3.20038835 22.73983816 3.22631836 20.95898438 C3.26261943 18.40225022 3.27970688 15.8460069 3.29296875 13.2890625 C3.30845261 12.49005524 3.32393646 11.69104797 3.33988953 10.86782837 C3.37576435 8.38935852 3.37576435 8.38935852 3 5 C2.01 4.34 1.02 3.68 0 3 C0 2.01 0 1.02 0 0 Z " fill="#ffffff" transform="translate(469,343)"/>
<path d="M0 0 C7.26 0 14.52 0 22 0 C21 3 21 3 19 4 C18.67 16.87 18.34 29.74 18 43 C26.45494801 42.97727977 26.45494801 42.97727977 29.41015625 39.71484375 C29.95542969 38.79832031 30.50070312 37.88179688 31.0625 36.9375 C31.63097656 36.01839844 32.19945312 35.09929687 32.78515625 34.15234375 C33.18605469 33.44207031 33.58695313 32.73179687 34 32 C34.99 32.33 35.98 32.66 37 33 C37.0861953 37.99932751 36.8372965 41.97622101 36 47 C24.12 47 12.24 47 0 47 C0.33 45.68 0.66 44.36 1 43 C1.99 42.505 1.99 42.505 3 42 C3.07403712 36.76728431 3.12854783 31.53487199 3.16479492 26.30175781 C3.17990173 24.52077933 3.20038835 22.73983816 3.22631836 20.95898438 C3.26261943 18.40225022 3.27970688 15.8460069 3.29296875 13.2890625 C3.30845261 12.49005524 3.32393646 11.69104797 3.33988953 10.86782837 C3.37576435 8.38935852 3.37576435 8.38935852 3 5 C2.01 4.34 1.02 3.68 0 3 C0 2.01 0 1.02 0 0 Z " fill="#ffffff" transform="translate(509,343)"/>
<path d="M0 0 C1.67542976 0.28604898 3.34385343 0.61781233 5 1 C5.33 2.65 5.66 4.3 6 6 C3.125 6.625 3.125 6.625 0 7 C-0.66 6.34 -1.32 5.68 -2 5 C-1.46428571 1.46428571 -1.46428571 1.46428571 0 0 Z " fill="#ffffff" transform="translate(458,459)"/>
<path d="M0 0 C0.042721 1.66611905 0.04063832 3.33382885 0 5 C-1 6 -1 6 -3.4375 6.1875 C-6 6 -6 6 -8 4 C-7.75 1.9375 -7.75 1.9375 -7 0 C-4.3333581 -1.33332095 -2.83319697 -0.67102033 0 0 Z " fill="#ffffff" transform="translate(572,460)"/>
<path d="M0 0 C0.9796875 0.00515625 1.959375 0.0103125 2.96875 0.015625 C3.9484375 0.01046875 4.928125 0.0053125 5.9375 0 C8.46875 0.265625 8.46875 0.265625 10.46875 2.265625 C10.46875 3.585625 10.46875 4.905625 10.46875 6.265625 C8.48875 6.595625 6.50875 6.925625 4.46875 7.265625 C3.80875 5.945625 3.14875 4.625625 2.46875 3.265625 C2.46875 4.915625 2.46875 6.565625 2.46875 8.265625 C4.77875 8.595625 7.08875 8.925625 9.46875 9.265625 C9.13875 9.925625 8.80875 10.585625 8.46875 11.265625 C7.47875 11.595625 6.48875 11.925625 5.46875 12.265625 C5.3878187 14.87041383 5.32829566 17.47269153 5.28125 20.078125 C5.25611328 20.81611328 5.23097656 21.55410156 5.20507812 22.31445312 C5.13947181 24.74797688 5.13947181 24.74797688 5.46875 28.265625 C6.45875 29.255625 7.44875 30.245625 8.46875 31.265625 C3.84875 31.265625 -0.77125 31.265625 -5.53125 31.265625 C-5.53125 30.605625 -5.53125 29.945625 -5.53125 29.265625 C-4.87125 29.265625 -4.21125 29.265625 -3.53125 29.265625 C-3.53125 23.325625 -3.53125 17.385625 -3.53125 11.265625 C-4.19125 11.265625 -4.85125 11.265625 -5.53125 11.265625 C-5.41715407 9.80639807 -5.28959456 8.34821902 -5.15625 6.890625 C-5.08664062 6.07851563 -5.01703125 5.26640625 -4.9453125 4.4296875 C-4.31903277 1.15648965 -3.28227016 0.34443576 0 0 Z " fill="#ffffff" transform="translate(357.53125,459.734375)"/>
<path d="M0 0 C3.3 0.33 6.6 0.66 10 1 C10.02505615 1.77190674 10.0501123 2.54381348 10.07592773 3.33911133 C10.19184007 6.83041181 10.31458824 10.32143922 10.4375 13.8125 C10.47681641 15.02744141 10.51613281 16.24238281 10.55664062 17.49414062 C10.61948242 19.23920898 10.61948242 19.23920898 10.68359375 21.01953125 C10.72025146 22.09307861 10.75690918 23.16662598 10.79467773 24.27270508 C10.89541847 27.09311553 10.89541847 27.09311553 12 30 C8.04 30 4.08 30 0 30 C0 29.34 0 28.68 0 28 C0.66 28 1.32 28 2 28 C1.86132739 23.89555833 1.71283897 19.7915296 1.5625 15.6875 C1.52318359 14.52025391 1.48386719 13.35300781 1.44335938 12.15039062 C1.40146484 11.03212891 1.35957031 9.91386719 1.31640625 8.76171875 C1.27974854 7.73006592 1.24309082 6.69841309 1.20532227 5.63549805 C1.09838758 2.89251742 1.09838758 2.89251742 0 0 Z " fill="#ffffff" transform="translate(150,461)"/>
<path d="M0 0 C3.3 0.33 6.6 0.66 10 1 C10.02505615 1.77190674 10.0501123 2.54381348 10.07592773 3.33911133 C10.19184007 6.83041181 10.31458824 10.32143922 10.4375 13.8125 C10.47681641 15.02744141 10.51613281 16.24238281 10.55664062 17.49414062 C10.61948242 19.23920898 10.61948242 19.23920898 10.68359375 21.01953125 C10.72025146 22.09307861 10.75690918 23.16662598 10.79467773 24.27270508 C10.89541847 27.09311553 10.89541847 27.09311553 12 30 C8.04 30 4.08 30 0 30 C0.495 28.515 0.495 28.515 1 27 C1.09385984 25.18939058 1.13070571 23.37553936 1.1328125 21.5625 C1.13410156 20.50289063 1.13539063 19.44328125 1.13671875 18.3515625 C1.13285156 17.24554688 1.12898437 16.13953125 1.125 15 C1.12886719 13.89398438 1.13273438 12.78796875 1.13671875 11.6484375 C1.13478516 10.05902344 1.13478516 10.05902344 1.1328125 8.4375 C1.13168457 7.46683594 1.13055664 6.49617188 1.12939453 5.49609375 C1.10444752 2.86885746 1.10444752 2.86885746 0 0 Z " fill="#ffffff" transform="translate(223,461)"/>
<path d="M0 0 C0.02505615 0.77190674 0.0501123 1.54381348 0.07592773 2.33911133 C0.19184007 5.83041181 0.31458824 9.32143922 0.4375 12.8125 C0.47681641 14.02744141 0.51613281 15.24238281 0.55664062 16.49414062 C0.61948242 18.23920898 0.61948242 18.23920898 0.68359375 20.01953125 C0.72025146 21.09307861 0.75690918 22.16662598 0.79467773 23.27270508 C0.89541847 26.09311553 0.89541847 26.09311553 2 29 C-1.96 29 -5.92 29 -10 29 C-10 28.34 -10 27.68 -10 27 C-9.34 27 -8.68 27 -8 27 C-8.13839953 22.87471501 -8.2869741 18.74985892 -8.4375 14.625 C-8.47681641 13.449375 -8.51613281 12.27375 -8.55664062 11.0625 C-8.59853516 9.94101562 -8.64042969 8.81953125 -8.68359375 7.6640625 C-8.72025146 6.62717285 -8.75690918 5.5902832 -8.79467773 4.52197266 C-8.84164223 2.00574834 -8.84164223 2.00574834 -10 0 C-6.7169902 -1.6415049 -3.57454967 -0.51888624 0 0 Z " fill="#ffffff" transform="translate(248,462)"/>
<path d="M0 0 C-0.33 2.64 -0.66 5.28 -1 8 C-1.66 8 -2.32 8 -3 8 C-3.721875 7.030625 -4.44375 6.06125 -5.1875 5.0625 C-7.45937189 2.17164505 -7.92568043 2.01705695 -11.8125 1.125 C-12.864375 1.08375 -13.91625 1.0425 -15 1 C-16.7678002 6.30340061 -16.92680499 11.93575253 -14.625 17.0625 C-13.13747501 19.0970615 -13.13747501 19.0970615 -11 20 C-6.77853434 20.28143104 -3.82708507 19.80098121 0 18 C-0.27039582 21.24474984 -0.8257708 22.79204902 -2.9375 25.3125 C-7.32340341 27.72922229 -11.09783879 27.7698907 -16 27 C-19.76367773 25.22080689 -21.50626666 23.70768445 -23.875 20.3125 C-25.59984325 15.23379489 -26.11454264 10.7863566 -24.0859375 5.71484375 C-22.24665383 2.44566535 -20.65865366 0.40161809 -17.4375 -1.5625 C-11.96997085 -2.25836735 -5.03143989 -2.51571994 0 0 Z " fill="#ffffff" transform="translate(197,464)"/>
<path d="M0 0 C3.1875 -0.3125 3.1875 -0.3125 6 0 C6.6875 1.8125 6.6875 1.8125 7 4 C5.75 5.75 5.75 5.75 4 7 C3.01 7 2.02 7 1 7 C1.66 7.33 2.32 7.66 3 8 C5 10 5 10 5.5625 13.9375 C5.37340171 17.04902634 5.06883332 17.90822224 3.125 20.5 C-1.27465692 22.61183532 -5.20350768 22.33528878 -10 22 C-10 22.66 -10 23.32 -10 24 C-9.10796875 24.02578125 -8.2159375 24.0515625 -7.296875 24.078125 C-5.54117187 24.16320312 -5.54117187 24.16320312 -3.75 24.25 C-2.58984375 24.29640625 -1.4296875 24.3428125 -0.234375 24.390625 C3.50244497 25.09466355 4.76710633 25.96569647 7 29 C7 32.0625 7 32.0625 6 35 C3.70843902 37.25451496 2.37357265 37.95221148 -0.83984375 38.36328125 C-1.86207031 38.34652344 -2.88429688 38.32976562 -3.9375 38.3125 C-4.95714844 38.30863281 -5.97679687 38.30476563 -7.02734375 38.30078125 C-10.03509637 37.99644886 -12.26880782 37.26248479 -15 36 C-15 34.35 -15 32.7 -15 31 C-14.34 31 -13.68 31 -13 31 C-13.2784375 29.1746875 -13.2784375 29.1746875 -13.5625 27.3125 C-13.99769387 23.9501802 -13.80350982 21.31447802 -13 18 C-13.33 17.67 -13.66 17.34 -14 17 C-14.38638297 13.52255325 -14.46259497 11.66613675 -12.4375 8.75 C-10 7 -10 7 -6.4375 6.0625 C-2.82028309 5.36493139 -2.82028309 5.36493139 -1.4375 2.375 C-0.963125 1.59125 -0.48875 0.8075 0 0 Z M-6 9 C-6.0270043 10.45823212 -6.04639787 11.91660675 -6.0625 13.375 C-6.07410156 14.18710937 -6.08570313 14.99921875 -6.09765625 15.8359375 C-6.14466334 18.04937142 -6.14466334 18.04937142 -5 20 C-4.01 19.67 -3.02 19.34 -2 19 C-2.33 16.03 -2.66 13.06 -3 10 C-3.99 9.67 -4.98 9.34 -6 9 Z M-11 31 C-7.18639898 35.09709868 -7.18639898 35.09709868 -1.875 36.0625 C-0.451875 36.0315625 -0.451875 36.0315625 1 36 C0.67 34.68 0.34 33.36 0 32 C-3.63 31.67 -7.26 31.34 -11 31 Z " fill="#ffffff" transform="translate(290,462)"/>
<path d="M0 0 C3.1875 -0.3125 3.1875 -0.3125 6 0 C6 1.98 6 3.96 6 6 C4.35 6.33 2.7 6.66 1 7 C1.66 7.33 2.32 7.66 3 8 C5 10 5 10 5.5625 13.9375 C5.37340171 17.04902634 5.06883332 17.90822224 3.125 20.5 C-1.27465692 22.61183532 -5.20350768 22.33528878 -10 22 C-10 22.66 -10 23.32 -10 24 C-9.10796875 24.03738281 -8.2159375 24.07476562 -7.296875 24.11328125 C-6.12640625 24.17902344 -4.9559375 24.24476563 -3.75 24.3125 C-2.58984375 24.37050781 -1.4296875 24.42851562 -0.234375 24.48828125 C3.10819638 25.01711803 4.5497057 25.73772333 7 28 C6.51199532 34.46606202 6.51199532 34.46606202 4.359375 36.7109375 C1.26485442 38.40165239 -0.9892081 38.36483979 -4.5 38.3125 C-5.6240625 38.30863281 -6.748125 38.30476563 -7.90625 38.30078125 C-10.83088934 38.01644131 -12.52707449 37.52133407 -15 36 C-15 34.35 -15 32.7 -15 31 C-14.34 31 -13.68 31 -13 31 C-13.185625 29.7625 -13.37125 28.525 -13.5625 27.25 C-13.96182976 24.12647546 -13.78431533 22.03922189 -13 19 C-13.2784375 17.2675 -13.2784375 17.2675 -13.5625 15.5 C-14.01829444 11.85364449 -14.03129693 10.91314739 -12 8 C-9.94140625 7.12890625 -9.94140625 7.12890625 -7.5625 6.5625 C-3.1597739 5.30057214 -2.25898819 3.98012204 0 0 Z M-6 9 C-6.0270043 10.45823212 -6.04639787 11.91660675 -6.0625 13.375 C-6.07410156 14.18710937 -6.08570313 14.99921875 -6.09765625 15.8359375 C-6.14466334 18.04937142 -6.14466334 18.04937142 -5 20 C-4.01 19.67 -3.02 19.34 -2 19 C-2.33 16.03 -2.66 13.06 -3 10 C-3.99 9.67 -4.98 9.34 -6 9 Z M-10 30 C-10 30.99 -10 31.98 -10 33 C-6.33513904 35.91033076 -3.60625394 36.32136655 1 36 C0.67 34.68 0.34 33.36 0 32 C-3.3 31.34 -6.6 30.68 -10 30 Z " fill="#ffffff" transform="translate(445,462)"/>
<path d="M0 0 C0.639375 0.2475 1.27875 0.495 1.9375 0.75 C2.9375 3.75 2.9375 3.75 1.9375 6.75 C0.2875 7.08 -1.3625 7.41 -3.0625 7.75 C-2.4025 8.265625 -1.7425 8.78125 -1.0625 9.3125 C0.9375 11.75 0.9375 11.75 1.5 15.25 C0.9375 18.75 0.9375 18.75 -0.9375 21.1875 C-5.33359421 23.3855471 -9.23729248 23.08729606 -14.0625 22.75 C-14.0625 23.41 -14.0625 24.07 -14.0625 24.75 C-13.08667969 24.78738281 -12.11085938 24.82476562 -11.10546875 24.86328125 C-9.83316406 24.92902344 -8.56085937 24.99476563 -7.25 25.0625 C-5.35314453 25.14951172 -5.35314453 25.14951172 -3.41796875 25.23828125 C-0.0625 25.75 -0.0625 25.75 1.890625 27.07421875 C2.9375 28.75 2.9375 28.75 2.875 32.25 C1.9375 35.75 1.9375 35.75 0.28515625 37.4453125 C-2.79576675 39.15750598 -5.05259785 39.1491507 -8.5625 39.125 C-10.24859375 39.13660156 -10.24859375 39.13660156 -11.96875 39.1484375 C-15.32360148 38.71637329 -16.77576365 38.22729771 -19.0625 35.75 C-19.0625 34.43 -19.0625 33.11 -19.0625 31.75 C-18.4025 31.75 -17.7425 31.75 -17.0625 31.75 C-17.3925 31.09 -17.7225 30.43 -18.0625 29.75 C-18.23401395 25.89093603 -17.81624627 22.51873133 -17.0625 18.75 C-17.3925 18.42 -17.7225 18.09 -18.0625 17.75 C-17.60922897 11.63084112 -17.60922897 11.63084112 -15.9375 8.9375 C-14.0625 7.75 -14.0625 7.75 -10.5625 6.875 C-6.9183029 6.09016016 -6.9183029 6.09016016 -5.25 3.1875 C-4.858125 2.383125 -4.46625 1.57875 -4.0625 0.75 C-2.0625 -0.25 -2.0625 -0.25 0 0 Z M-10.0625 9.75 C-10.0895043 11.20823212 -10.10889787 12.66660675 -10.125 14.125 C-10.13660156 14.93710937 -10.14820313 15.74921875 -10.16015625 16.5859375 C-10.20716334 18.79937142 -10.20716334 18.79937142 -9.0625 20.75 C-8.0725 20.42 -7.0825 20.09 -6.0625 19.75 C-6.3925 16.45 -6.7225 13.15 -7.0625 9.75 C-8.0525 9.75 -9.0425 9.75 -10.0625 9.75 Z M-15.0625 30.75 C-13.50872625 34.63736036 -13.50872625 34.63736036 -11.3125 36 C-8.48496362 36.94251213 -6.02256696 36.8845485 -3.0625 36.75 C-3.3925 35.43 -3.7225 34.11 -4.0625 32.75 C-7.6925 32.09 -11.3225 31.43 -15.0625 30.75 Z " fill="#ffffff" transform="translate(623.0625,461.25)"/>
<path d="M0 0 C3.63 0 7.26 0 11 0 C11 8.91 11 17.82 11 27 C11.66 27 12.32 27 13 27 C13 27.66 13 28.32 13 29 C9.7 29 6.4 29 3 29 C3 28.34 3 27.68 3 27 C2.484375 27.33 1.96875 27.66 1.4375 28 C-1.88247788 29.36204221 -4.44186248 29.31769085 -8 29 C-11.1850357 27.23984869 -11.83296972 26.50109084 -13 23 C-13.53696142 18.37861071 -13.37542399 14.86034665 -11.5 10.5625 C-8.07382028 7.05066579 -5.83023442 6.69003349 -1 6 C-0.01 6.33 0.98 6.66 2 7 C1.34414811 3.39007621 1.34414811 3.39007621 0 0 Z M-4 10 C-5.41933513 14.25800538 -5.72651677 18.22911538 -4 22.4375 C-3.67 22.953125 -3.34 23.46875 -3 24 C-1.35 24 0.3 24 2 24 C3.41778293 21.16443413 2.86257622 19.0091294 2.5625 15.875 C2.46066406 14.77929688 2.35882812 13.68359375 2.25390625 12.5546875 C2.17011719 11.71164062 2.08632813 10.86859375 2 10 C-1.04913228 8.98888907 -1.04913228 8.98888907 -4 10 Z " fill="#ffffff" transform="translate(702,462)"/>
<path d="M0 0 C3.3 0 6.6 0 10 0 C10 2.97 10 5.94 10 9 C10.70125 8.46375 11.4025 7.9275 12.125 7.375 C15 6 15 6 18.1875 6.375 C21 8 21 8 22.3125 10.9375 C23.21078305 15.14431072 23.4226197 19.45507153 23.65625 23.7421875 C23.7696875 24.48726563 23.883125 25.23234375 24 26 C24.66 26.33 25.32 26.66 26 27 C26 27.66 26 28.32 26 29 C22.7 29 19.4 29 16 29 C14.48484483 25.96968967 14.35175359 22.7013029 13.9375 19.375 C13.84662109 18.66859375 13.75574219 17.9621875 13.66210938 17.234375 C13.43816881 15.4899959 13.21866182 13.74504866 13 12 C12.34 12 11.68 12 11 12 C10.97300275 14.27076842 10.95360547 16.54162821 10.9375 18.8125 C10.92589844 20.07707031 10.91429687 21.34164063 10.90234375 22.64453125 C10.83840884 25.99605237 10.83840884 25.99605237 12 29 C8.04 29 4.08 29 0 29 C0 28.34 0 27.68 0 27 C0.66 27 1.32 27 2 27 C1.86160047 22.87471501 1.7130259 18.74985892 1.5625 14.625 C1.52318359 13.449375 1.48386719 12.27375 1.44335938 11.0625 C1.40146484 9.94101562 1.35957031 8.81953125 1.31640625 7.6640625 C1.27974854 6.62717285 1.24309082 5.5902832 1.20532227 4.52197266 C1.15835777 2.00574834 1.15835777 2.00574834 0 0 Z " fill="#ffffff" transform="translate(886,462)"/>
<path d="M0 0 C6.93 0 13.86 0 21 0 C20.19372565 4.03137177 19.58283798 6.16222538 17.71484375 9.609375 C17.04291992 10.86427734 17.04291992 10.86427734 16.35742188 12.14453125 C15.88884766 13.00433594 15.42027344 13.86414063 14.9375 14.75 C14.00745244 16.4730622 13.0789766 18.19697402 12.15234375 19.921875 C11.73976318 20.68081055 11.32718262 21.43974609 10.90209961 22.22167969 C9.92460045 23.81629561 9.92460045 23.81629561 10 25 C11.98 25 13.96 25 16 25 C16.99 23.02 17.98 21.04 19 19 C19.66 19 20.32 19 21 19 C21 21.97 21 24.94 21 28 C13.74 28 6.48 28 -1 28 C-0.05486115 23.27430576 1.44251443 20.14426827 3.875 16.125 C6.63650292 11.52249513 8.97595345 6.97737235 11 2 C8.08961458 2.02525184 8.08961458 2.02525184 5 3 C3.06530151 5.95071844 3.06530151 5.95071844 2 9 C1.34 9 0.68 9 0 9 C0 6.03 0 3.06 0 0 Z " fill="#ffffff" transform="translate(78,463)"/>
<path d="M0 0 C7.26 0 14.52 0 22 0 C22.33 2.97 22.66 5.94 23 9 C22.34 9 21.68 9 21 9 C20.4225 8.030625 19.845 7.06125 19.25 6.0625 C17.27945839 2.71259472 17.27945839 2.71259472 13.75 2.125 C12.38875 2.063125 12.38875 2.063125 11 2 C11 5.63 11 9.26 11 13 C12.65 12.67 14.3 12.34 16 12 C16.33 11.34 16.66 10.68 17 10 C17.66 10 18.32 10 19 10 C19 12.64 19 15.28 19 18 C18.34 17.67 17.68 17.34 17 17 C17 16.34 17 15.68 17 15 C15.02 15 13.04 15 11 15 C11.33 18.3 11.66 21.6 12 25 C13.98 25 15.96 25 18 25 C18.66 23.35 19.32 21.7 20 20 C20.99 20 21.98 20 23 20 C22.67 22.64 22.34 25.28 22 28 C14.74 28 7.48 28 0 28 C0 27.34 0 26.68 0 26 C0.66 25.67 1.32 25.34 2 25 C2.05800828 21.39590081 2.09359869 17.79192149 2.125 14.1875 C2.14175781 13.16333984 2.15851563 12.13917969 2.17578125 11.08398438 C2.18222656 10.10107422 2.18867188 9.11816406 2.1953125 8.10546875 C2.20578613 7.19949951 2.21625977 6.29353027 2.22705078 5.36010742 C2.16165391 2.73063552 2.16165391 2.73063552 0 0 Z " fill="#ffffff" transform="translate(378,463)"/>
<path d="M0 0 C3.22886009 -0.11667875 6.45717445 -0.18740546 9.6875 -0.25 C11.05551758 -0.30027344 11.05551758 -0.30027344 12.45117188 -0.3515625 C16.8216418 -0.41513297 19.28821923 -0.43697933 23.0859375 1.89453125 C25.08941989 4.09836187 25.91027942 5.03922072 26 8 C25.25 10.6875 25.25 10.6875 24 13 C23.01 13.33 22.02 13.66 21 14 C21.48082031 14.39832031 21.96164062 14.79664063 22.45703125 15.20703125 C24.37391825 17.43450247 24.47741643 18.78834669 24.6875 21.6875 C24.78611328 22.89986328 24.78611328 22.89986328 24.88671875 24.13671875 C24.92410156 24.75160156 24.96148438 25.36648438 25 26 C25.66 26 26.32 26 27 26 C27 26.66 27 27.32 27 28 C25.35425434 28.02688151 23.70838587 28.04634123 22.0625 28.0625 C21.14597656 28.07410156 20.22945312 28.08570313 19.28515625 28.09765625 C17 28 17 28 16 27 C15.92794489 25.31391034 15.91613932 23.62499341 15.9375 21.9375 C15.94652344 21.01839844 15.95554687 20.09929687 15.96484375 19.15234375 C15.97644531 18.44207031 15.98804688 17.73179687 16 17 C14.35 16.67 12.7 16.34 11 16 C11 19.3 11 22.6 11 26 C11.66 26 12.32 26 13 26 C13 26.66 13 27.32 13 28 C8.71 28 4.42 28 0 28 C0 27.34 0 26.68 0 26 C0.66 25.67 1.32 25.34 2 25 C2.05800828 21.39590081 2.09359869 17.79192149 2.125 14.1875 C2.14175781 13.16333984 2.15851562 12.13917969 2.17578125 11.08398438 C2.18222656 10.10107422 2.18867187 9.11816406 2.1953125 8.10546875 C2.20578613 7.19949951 2.21625977 6.29353027 2.22705078 5.36010742 C2.16165391 2.73063552 2.16165391 2.73063552 0 0 Z M11 2 C11 5.96 11 9.92 11 14 C15.63019987 13.5547002 15.63019987 13.5547002 17 12 C17.33856828 6.67326964 17.33856828 6.67326964 15 2 C13.68 2 12.36 2 11 2 Z " fill="#ffffff" transform="translate(725,463)"/>
<path d="M0 0 C3.22886009 -0.11667875 6.45717445 -0.18740546 9.6875 -0.25 C11.05551758 -0.30027344 11.05551758 -0.30027344 12.45117188 -0.3515625 C16.80077644 -0.41482948 19.2920233 -0.42747454 23.0859375 1.86328125 C25.33059335 4.36905013 25.91818847 5.64572723 26 9 C25.22851631 12.24023148 24.41480706 13.64619398 21.875 15.8125 C18.02507023 17.40268838 15.14686216 17.2108574 11 17 C11 19.97 11 22.94 11 26 C11.99 26 12.98 26 14 26 C14 26.66 14 27.32 14 28 C9.38 28 4.76 28 0 28 C0 27.34 0 26.68 0 26 C0.66 25.67 1.32 25.34 2 25 C2.05816623 21.58340509 2.09365195 18.16693795 2.125 14.75 C2.14175781 13.78191406 2.15851562 12.81382812 2.17578125 11.81640625 C2.18222656 10.88183594 2.18867187 9.94726562 2.1953125 8.984375 C2.20578613 8.12553711 2.21625977 7.26669922 2.22705078 6.38183594 C1.98293323 3.82096404 1.28990512 2.20488971 0 0 Z M11 2 C11 6.29 11 10.58 11 15 C15.63019987 14.5547002 15.63019987 14.5547002 17 13 C17.46331437 7.12353969 17.46331437 7.12353969 15 2 C13.68 2 12.36 2 11 2 Z " fill="#ffffff" transform="translate(934,463)"/>
<path d="M0 0 C3 1.875 3 1.875 5 5 C5.89238804 10.25956137 5.89867394 14.5022101 3.125 19.125 C-0.62697217 22.43556368 -3.64828655 22.3875099 -8.515625 22.359375 C-11 22 -11 22 -14.0625 19.625 C-17.15692015 15.4325598 -17.53355357 12.13792324 -17 7 C-15.61351682 3.53379206 -14.37469941 2.2614182 -11.3125 0.125 C-7.14579699 -1.29010668 -4.18021723 -1.35621011 0 0 Z M-8 2 C-9.62094818 3.62094818 -9.20950959 5.39127885 -9.25 7.625 C-9.22198588 12.49945624 -8.24040652 15.7058875 -6 20 C-5.01 19.67 -4.02 19.34 -3 19 C-2.94581674 16.91695462 -2.90712449 14.83350232 -2.875 12.75 C-2.85179687 11.58984375 -2.82859375 10.4296875 -2.8046875 9.234375 C-2.9896051 6.17213954 -3.39176977 4.55797249 -5 2 C-5.99 2 -6.98 2 -8 2 Z " fill="#ffffff" transform="translate(217,469)"/>
<path d="M0 0 C2.81685096 2.7427233 4.42036243 5.08744639 5 9 C0.82262526 10.59138085 -2.53160785 11.21278058 -7 11 C-6.67 12.65 -6.34 14.3 -6 16 C-2.7 16 0.6 16 4 16 C2 20 2 20 -1 22 C-4.06526351 22.54531842 -6.93408329 22.54325893 -10 22 C-12.75569447 19.81840855 -14.43588747 18.12822506 -16 15 C-16.39431433 10.26822808 -16.45299639 7.90599278 -14.3125 3.625 C-10.00297598 -1.26689213 -6.24340656 -1.70274724 0 0 Z M-7 2 C-8.35618499 3.12534105 -8.35618499 3.12534105 -8.0625 6.0625 C-8.041875 7.031875 -8.02125 8.00125 -8 9 C-6.35 9 -4.7 9 -3 9 C-2.67 8.34 -2.34 7.68 -2 7 C-2.89363605 4.39068734 -2.89363605 4.39068734 -4 2 C-4.99 2 -5.98 2 -7 2 Z " fill="#ffffff" transform="translate(314,469)"/>
<path d="M0 0 C2.94724731 4.60507392 2.8872513 8.8014922 2 14.125 C0.19881522 17.12697464 -0.90332732 18.57666366 -4 20.125 C-8.28819956 20.56308718 -11.94422448 20.57426618 -15.9375 18.875 C-19.52516558 15.83092012 -19.91828459 13.96939259 -20.375 9.25 C-20.25398793 4.92583537 -18.88574053 2.40070546 -16 -0.875 C-10.73534233 -4.23853129 -5.05467035 -3.15916897 0 0 Z M-11 0.125 C-12.70558443 1.83058443 -12.21230676 3.98494218 -12.25 6.3125 C-12.22564921 10.98785094 -11.59593343 14.12293596 -9 18.125 C-8.01 17.795 -7.02 17.465 -6 17.125 C-5.94558344 15.22948978 -5.90701965 13.3335208 -5.875 11.4375 C-5.85179687 10.38175781 -5.82859375 9.32601563 -5.8046875 8.23828125 C-6.00141271 5.10248141 -6.66942346 2.94854627 -8 0.125 C-8.99 0.125 -9.98 0.125 -11 0.125 Z " fill="#ffffff" transform="translate(349,470.875)"/>
<path d="M0 0 C2.81685096 2.7427233 4.42036243 5.08744639 5 9 C0.82262526 10.59138085 -2.53160785 11.21278058 -7 11 C-6.67 12.65 -6.34 14.3 -6 16 C-2.7 16 0.6 16 4 16 C2 20 2 20 -1 22 C-5.56051995 22.73446576 -9.01911074 22.59262059 -13 20.1875 C-16.15343395 16.73843162 -16.29498124 13.57647752 -16.2109375 8.99609375 C-15.89081632 5.9667989 -14.974147 4.3031715 -13 2 C-8.44008092 -1.10903574 -5.29947696 -1.5702154 0 0 Z M-7 2 C-8.35618499 3.12534105 -8.35618499 3.12534105 -8.0625 6.0625 C-8.041875 7.031875 -8.02125 8.00125 -8 9 C-6.35 9 -4.7 9 -3 9 C-3 7.02 -3 5.04 -3 3 C-4.94603274 2.40929986 -4.94603274 2.40929986 -7 2 Z " fill="#ffffff" transform="translate(535,469)"/>
<path d="M0 0 C2.81685096 2.7427233 4.42036243 5.08744639 5 9 C0.82262526 10.59138085 -2.53160785 11.21278058 -7 11 C-6.08216876 13.6450037 -6.08216876 13.6450037 -4 16 C-1.20625708 16.46837899 1.14221036 16.23424505 4 16 C2.63016497 19.16115776 2.0109362 19.9927092 -1 22 C-4.06526351 22.54531842 -6.93408329 22.54325893 -10 22 C-12.75569447 19.81840855 -14.43588747 18.12822506 -16 15 C-16.34444547 9.74720662 -16.57741751 6.17365376 -13 2 C-8.44008092 -1.10903574 -5.29947696 -1.5702154 0 0 Z M-7 2 C-8.35618499 3.12534105 -8.35618499 3.12534105 -8.0625 6.0625 C-8.041875 7.031875 -8.02125 8.00125 -8 9 C-6.35 9 -4.7 9 -3 9 C-3 7.02 -3 5.04 -3 3 C-4.94603274 2.40929986 -4.94603274 2.40929986 -7 2 Z " fill="#ffffff" transform="translate(769,469)"/>
<path d="M0 0 C0.66 0.66 1.32 1.32 2 2 C1.625 4.125 1.625 4.125 1 6 C-0.65 6 -2.3 6 -4 6 C-4.33 4.35 -4.66 2.7 -5 1 C-5.99 1.495 -5.99 1.495 -7 2 C-6.95231597 3.87880872 -6.95231597 3.87880872 -6 6 C-3.0929357 8.16026765 -3.0929357 8.16026765 0 10 C2 12 2 12 2.375 15.4375 C2 19 2 19 0.29296875 20.703125 C-2.38826698 22.21959904 -4.00244516 22.37250108 -7.0625 22.3125 C-8.34833984 22.30669922 -8.34833984 22.30669922 -9.66015625 22.30078125 C-12 22 -12 22 -15 20 C-14.67 18.68 -14.34 17.36 -14 16 C-10.25 14.875 -10.25 14.875 -8 16 C-8 17.32 -8 18.64 -8 20 C-7.01 19.67 -6.02 19.34 -5 19 C-6.5117416 14.76712351 -9.3322614 13.36874785 -13 11 C-15 8 -15 8 -14.8125 5.5 C-13.93740139 2.80738888 -13.22274287 1.70980221 -11 0 C-6.88092254 -1.37302582 -4.27865333 -0.74706646 0 0 Z " fill="#ffffff" transform="translate(790,469)"/>
<path d="M0 0 C2.00239852 2.86814141 2.10508543 5.64762737 2.515625 9.08984375 C2.67417969 10.36214844 2.83273437 11.63445312 2.99609375 12.9453125 C3.16044922 14.40904297 3.16044922 14.40904297 3.328125 15.90234375 C3.988125 15.90234375 4.648125 15.90234375 5.328125 15.90234375 C4.338125 18.37734375 4.338125 18.37734375 3.328125 20.90234375 C-3.296875 21.02734375 -3.296875 21.02734375 -6.671875 19.90234375 C-7.331875 20.23234375 -7.991875 20.56234375 -8.671875 20.90234375 C-14.89270085 21.35476745 -14.89270085 21.35476745 -17.609375 19.77734375 C-19.17609745 17.01253942 -19.06163935 15.02045858 -18.671875 11.90234375 C-16.47795172 9.02586656 -14.47707268 8.37288824 -10.984375 7.71484375 C-10.17613281 7.55628906 -9.36789062 7.39773438 -8.53515625 7.234375 C-7.61283203 7.07001953 -7.61283203 7.07001953 -6.671875 6.90234375 C-7.331875 4.92234375 -7.991875 2.94234375 -8.671875 0.90234375 C-8.795625 1.52109375 -8.919375 2.13984375 -9.046875 2.77734375 C-9.671875 4.90234375 -9.671875 4.90234375 -11.671875 6.90234375 C-14.296875 6.52734375 -14.296875 6.52734375 -16.671875 5.90234375 C-17.001875 4.58234375 -17.331875 3.26234375 -17.671875 1.90234375 C-12.61078739 -2.25497822 -5.86698446 -3.85192204 0 0 Z M-7.671875 9.90234375 C-8.661875 10.23234375 -9.651875 10.56234375 -10.671875 10.90234375 C-10.671875 12.55234375 -10.671875 14.20234375 -10.671875 15.90234375 C-9.351875 16.23234375 -8.031875 16.56234375 -6.671875 16.90234375 C-5.98028099 15.05509323 -5.98028099 15.05509323 -5.671875 12.90234375 C-6.331875 11.91234375 -6.991875 10.92234375 -7.671875 9.90234375 Z " fill="#ffffff" transform="translate(836.671875,470.09765625)"/>
<path d="M0 0 C2.81685096 2.7427233 4.42036243 5.08744639 5 9 C0.82262526 10.59138085 -2.53160785 11.21278058 -7 11 C-6.67 12.65 -6.34 14.3 -6 16 C-2.7 16 0.6 16 4 16 C2 20 2 20 -1 22 C-5.56051995 22.73446576 -9.01911074 22.59262059 -13 20.1875 C-16.15343395 16.73843162 -16.29498124 13.57647752 -16.2109375 8.99609375 C-15.89081632 5.9667989 -14.974147 4.3031715 -13 2 C-8.44008092 -1.10903574 -5.29947696 -1.5702154 0 0 Z M-7 2 C-8.35618499 3.12534105 -8.35618499 3.12534105 -8.0625 6.0625 C-8.041875 7.031875 -8.02125 8.00125 -8 9 C-6.35 9 -4.7 9 -3 9 C-3 7.02 -3 5.04 -3 3 C-4.94603274 2.40929986 -4.94603274 2.40929986 -7 2 Z " fill="#ffffff" transform="translate(1031,469)"/>
<path d="M0 0 C2.44634949 2.44634949 3.39560245 4.61537372 4 8 C-0.17737474 9.59138085 -3.53160785 10.21278058 -8 10 C-7.67 11.65 -7.34 13.3 -7 15 C-3.7 15 -0.4 15 3 15 C1 19 1 19 -2 21 C-5.06526351 21.54531842 -7.93408329 21.54325893 -11 21 C-13.75569447 18.81840855 -15.43588747 17.12822506 -17 14 C-17.35382027 8.60424085 -17.39538538 5.44011935 -14 1 C-9.74061689 -3.25938311 -5.25539163 -2.04376341 0 0 Z M-8 1 C-9.35618499 2.12534105 -9.35618499 2.12534105 -9.0625 5.0625 C-9.041875 6.031875 -9.02125 7.00125 -9 8 C-7.35 8 -5.7 8 -4 8 C-4 6.02 -4 4.04 -4 2 C-5.94603274 1.40929986 -5.94603274 1.40929986 -8 1 Z " fill="#ffffff" transform="translate(119,470)"/>
<path d="M0 0 C2.05003227 2.86064675 2.13789014 5.62791059 2.55078125 9.08984375 C2.70933594 10.36214844 2.86789063 11.63445312 3.03125 12.9453125 C3.19560547 14.40904297 3.19560547 14.40904297 3.36328125 15.90234375 C4.02328125 15.90234375 4.68328125 15.90234375 5.36328125 15.90234375 C4.37328125 18.37734375 4.37328125 18.37734375 3.36328125 20.90234375 C-0.30338542 20.90234375 -3.97005208 20.90234375 -7.63671875 20.90234375 C-8.30832031 20.93714844 -8.97992188 20.97195313 -9.671875 21.0078125 C-15.06152402 21.22589078 -15.06152402 21.22589078 -17.63671875 19.77734375 C-19.11573541 17.00418751 -19.02273859 14.9905025 -18.63671875 11.90234375 C-16.44279547 9.02586656 -14.44191643 8.37288824 -10.94921875 7.71484375 C-10.14097656 7.55628906 -9.33273438 7.39773438 -8.5 7.234375 C-7.57767578 7.07001953 -7.57767578 7.07001953 -6.63671875 6.90234375 C-7.29671875 4.92234375 -7.95671875 2.94234375 -8.63671875 0.90234375 C-8.96671875 1.23234375 -9.29671875 1.56234375 -9.63671875 1.90234375 C-9.63671875 3.22234375 -9.63671875 4.54234375 -9.63671875 5.90234375 C-12.51171875 6.52734375 -12.51171875 6.52734375 -15.63671875 6.90234375 C-16.29671875 6.24234375 -16.95671875 5.58234375 -17.63671875 4.90234375 C-17.44921875 2.90234375 -17.44921875 2.90234375 -16.63671875 0.90234375 C-11.68794821 -2.39683661 -5.2820979 -3.54240933 0 0 Z M-7.63671875 9.90234375 C-8.62671875 10.23234375 -9.61671875 10.56234375 -10.63671875 10.90234375 C-10.63671875 12.55234375 -10.63671875 14.20234375 -10.63671875 15.90234375 C-9.31671875 16.23234375 -7.99671875 16.56234375 -6.63671875 16.90234375 C-5.95713272 14.50514943 -5.95713272 14.50514943 -5.63671875 11.90234375 C-6.29671875 11.24234375 -6.95671875 10.58234375 -7.63671875 9.90234375 Z " fill="#ffffff" transform="translate(143.63671875,470.09765625)"/>
<path d="M0 0 C1.78488669 2.47138157 2.29102151 4.24419362 2.625 7.25 C-1.55237474 8.84138085 -4.90660785 9.46278058 -9.375 9.25 C-9.045 10.9 -8.715 12.55 -8.375 14.25 C-5.075 14.25 -1.775 14.25 1.625 14.25 C-0.375 18.25 -0.375 18.25 -3.375 20.25 C-6.44026351 20.79531842 -9.30908329 20.79325893 -12.375 20.25 C-15.13069447 18.06840855 -16.81088747 16.37822506 -18.375 13.25 C-18.72882027 7.85424085 -18.77038538 4.69011935 -15.375 0.25 C-11.06250291 -4.06249709 -4.80500731 -3.5405317 0 0 Z M-9.375 0.25 C-10.73118499 1.37534105 -10.73118499 1.37534105 -10.4375 4.3125 C-10.416875 5.281875 -10.39625 6.25125 -10.375 7.25 C-8.725 7.25 -7.075 7.25 -5.375 7.25 C-5.705 4.94 -6.035 2.63 -6.375 0.25 C-7.365 0.25 -8.355 0.25 -9.375 0.25 Z " fill="#ffffff" transform="translate(270.375,470.75)"/>
<path d="M0 0 C2.8125 1.625 2.8125 1.625 4.125 4.5625 C5.02328305 8.76931072 5.2351197 13.08007153 5.46875 17.3671875 C5.5821875 18.11226563 5.695625 18.85734375 5.8125 19.625 C6.4725 19.955 7.1325 20.285 7.8125 20.625 C7.8125 21.285 7.8125 21.945 7.8125 22.625 C4.5125 22.625 1.2125 22.625 -2.1875 22.625 C-3.1775 17.015 -4.1675 11.405 -5.1875 5.625 C-5.8475 5.625 -6.5075 5.625 -7.1875 5.625 C-7.24148987 7.89557377 -7.28028742 10.16651288 -7.3125 12.4375 C-7.33570313 13.70207031 -7.35890625 14.96664063 -7.3828125 16.26953125 C-7.46331918 19.7588024 -7.46331918 19.7588024 -5.1875 22.625 C-9.4775 22.625 -13.7675 22.625 -18.1875 22.625 C-17.6925 21.14 -17.6925 21.14 -17.1875 19.625 C-17.04346652 18.29136297 -16.94159577 16.95281954 -16.87109375 15.61328125 C-16.82919922 14.85595703 -16.78730469 14.09863281 -16.74414062 13.31835938 C-16.70482422 12.53267578 -16.66550781 11.74699219 -16.625 10.9375 C-16.58181641 10.14021484 -16.53863281 9.34292969 -16.49414062 8.52148438 C-16.38822632 6.55618553 -16.28737449 4.59061504 -16.1875 2.625 C-16.8475 2.625 -17.5075 2.625 -18.1875 2.625 C-18.1875 1.965 -18.1875 1.305 -18.1875 0.625 C-14.8875 0.625 -11.5875 0.625 -8.1875 0.625 C-8.1875 1.285 -8.1875 1.945 -8.1875 2.625 C-7.48625 2.08875 -6.785 1.5525 -6.0625 1 C-3.1875 -0.375 -3.1875 -0.375 0 0 Z " fill="#ffffff" transform="translate(421.1875,468.375)"/>
<path d="M0 0 C3.3 0 6.6 0 10 0 C10.06058594 1.33675781 10.12117188 2.67351562 10.18359375 4.05078125 C10.26800687 5.80469821 10.35265448 7.5586039 10.4375 9.3125 C10.47681641 10.19357422 10.51613281 11.07464844 10.55664062 11.98242188 C10.61948242 13.25375977 10.61948242 13.25375977 10.68359375 14.55078125 C10.72025146 15.33106689 10.75690918 16.11135254 10.79467773 16.9152832 C10.94125263 19.19329101 10.94125263 19.19329101 12 22 C8.04 22 4.08 22 0 22 C0 21.34 0 20.68 0 20 C0.66 20 1.32 20 2 20 C2 14.06 2 8.12 2 2 C1.34 2 0.68 2 0 2 C0 1.34 0 0.68 0 0 Z " fill="#ffffff" transform="translate(454,469)"/>
<path d="M0 0 C2.4375 1.5 2.4375 1.5 3.6875 4.4375 C4.64796852 8.6439964 4.85949404 12.94359067 5.09375 17.2421875 C5.2071875 17.98726563 5.320625 18.73234375 5.4375 19.5 C6.0975 19.83 6.7575 20.16 7.4375 20.5 C7.4375 21.16 7.4375 21.82 7.4375 22.5 C4.1375 22.5 0.8375 22.5 -2.5625 22.5 C-4.07765517 19.46968967 -4.21074641 16.2013029 -4.625 12.875 C-4.71587891 12.16859375 -4.80675781 11.4621875 -4.90039062 10.734375 C-5.12433119 8.9899959 -5.34383818 7.24504866 -5.5625 5.5 C-6.2225 5.5 -6.8825 5.5 -7.5625 5.5 C-7.58949725 7.77076842 -7.60889453 10.04162821 -7.625 12.3125 C-7.63660156 13.57707031 -7.64820313 14.84164063 -7.66015625 16.14453125 C-7.72409116 19.49605237 -7.72409116 19.49605237 -6.5625 22.5 C-10.5225 22.5 -14.4825 22.5 -18.5625 22.5 C-18.0675 21.015 -18.0675 21.015 -17.5625 19.5 C-17.41846652 18.16636297 -17.31659577 16.82781954 -17.24609375 15.48828125 C-17.20419922 14.73095703 -17.16230469 13.97363281 -17.11914062 13.19335938 C-17.07982422 12.40767578 -17.04050781 11.62199219 -17 10.8125 C-16.95681641 10.01521484 -16.91363281 9.21792969 -16.86914062 8.39648438 C-16.76322632 6.43118553 -16.66237449 4.46561504 -16.5625 2.5 C-17.2225 2.5 -17.8825 2.5 -18.5625 2.5 C-18.5625 1.84 -18.5625 1.18 -18.5625 0.5 C-14.22916667 0.5 -9.89583333 0.5 -5.5625 0.5 C-2.5625 -0.5 -2.5625 -0.5 0 0 Z " fill="#ffffff" transform="translate(487.5625,468.5)"/>
<path d="M0 0 C2.81685096 2.7427233 4.42036243 5.08744639 5 9 C0.82262526 10.59138085 -2.53160785 11.21278058 -7 11 C-6.67 12.65 -6.34 14.3 -6 16 C-2.7 16 0.6 16 4 16 C2 20 2 20 0 22 C-3.38350489 22.5689079 -6.61391382 22.53772752 -10 22 C-12.82424288 19.80977082 -14.41508603 18.16982793 -16 15 C-16.35382027 9.60424085 -16.39538538 6.44011935 -13 2 C-9.12955695 -1.87044305 -5.13675813 -1.28418953 0 0 Z M-7 2 C-8.35618499 3.12534105 -8.35618499 3.12534105 -8.0625 6.0625 C-8.041875 7.031875 -8.02125 8.00125 -8 9 C-6.35 9 -4.7 9 -3 9 C-3 7.02 -3 5.04 -3 3 C-4.94603274 2.40929986 -4.94603274 2.40929986 -7 2 Z " fill="#ffffff" transform="translate(512,469)"/>
<path d="M0 0 C0.33 2.31 0.66 4.62 1 7 C-1.25 8.1875 -1.25 8.1875 -4 9 C-5.32 8.01 -6.64 7.02 -8 6 C-8 10.29 -8 14.58 -8 19 C-7.34 19.33 -6.68 19.66 -6 20 C-6 20.66 -6 21.32 -6 22 C-10.29 22 -14.58 22 -19 22 C-18.505 20.515 -18.505 20.515 -18 19 C-17.85596652 17.66636297 -17.75409577 16.32781954 -17.68359375 14.98828125 C-17.64169922 14.23095703 -17.59980469 13.47363281 -17.55664062 12.69335938 C-17.51732422 11.90767578 -17.47800781 11.12199219 -17.4375 10.3125 C-17.39431641 9.51521484 -17.35113281 8.71792969 -17.30664062 7.89648438 C-17.20072632 5.93118553 -17.09987449 3.96561504 -17 2 C-17.66 2 -18.32 2 -19 2 C-19 1.34 -19 0.68 -19 0 C-14.66666667 0 -10.33333333 0 -6 0 C-3.50907189 -1.24546405 -2.58919267 -0.7767578 0 0 Z " fill="#ffffff" transform="translate(560,469)"/>
<path d="M0 0 C3.3 0 6.6 0 10 0 C10.06058594 1.33675781 10.12117187 2.67351562 10.18359375 4.05078125 C10.26800687 5.80469821 10.35265448 7.5586039 10.4375 9.3125 C10.47681641 10.19357422 10.51613281 11.07464844 10.55664062 11.98242188 C10.61948242 13.25375977 10.61948242 13.25375977 10.68359375 14.55078125 C10.72025146 15.33106689 10.75690918 16.11135254 10.79467773 16.9152832 C10.94125263 19.19329101 10.94125263 19.19329101 12 22 C8.04 22 4.08 22 0 22 C0.495 20.515 0.495 20.515 1 19 C1.14403348 17.66636297 1.24590423 16.32781954 1.31640625 14.98828125 C1.35830078 14.23095703 1.40019531 13.47363281 1.44335938 12.69335938 C1.48267578 11.90767578 1.52199219 11.12199219 1.5625 10.3125 C1.60568359 9.51521484 1.64886719 8.71792969 1.69335938 7.89648438 C1.79927368 5.93118553 1.90012551 3.96561504 2 2 C1.34 2 0.68 2 0 2 C0 1.34 0 0.68 0 0 Z " fill="#ffffff" transform="translate(562,469)"/>
<path d="M0 0 C2.8125 1.625 2.8125 1.625 4.125 4.5 C5.23570904 9.78428243 5.47690221 15.24660381 5.8125 20.625 C6.4725 20.625 7.1325 20.625 7.8125 20.625 C7.8125 21.285 7.8125 21.945 7.8125 22.625 C4.5125 22.625 1.2125 22.625 -2.1875 22.625 C-3.70265517 19.59468967 -3.83574641 16.3263029 -4.25 13 C-4.34087891 12.29359375 -4.43175781 11.5871875 -4.52539062 10.859375 C-4.74933119 9.1149959 -4.96883818 7.37004866 -5.1875 5.625 C-5.8475 5.625 -6.5075 5.625 -7.1875 5.625 C-7.21449725 7.89576842 -7.23389453 10.16662821 -7.25 12.4375 C-7.26160156 13.70207031 -7.27320313 14.96664063 -7.28515625 16.26953125 C-7.34909116 19.62105237 -7.34909116 19.62105237 -6.1875 22.625 C-10.1475 22.625 -14.1075 22.625 -18.1875 22.625 C-18.1875 21.965 -18.1875 21.305 -18.1875 20.625 C-17.5275 20.625 -16.8675 20.625 -16.1875 20.625 C-16.1875 14.685 -16.1875 8.745 -16.1875 2.625 C-16.8475 2.625 -17.5075 2.625 -18.1875 2.625 C-18.1875 1.965 -18.1875 1.305 -18.1875 0.625 C-14.8875 0.625 -11.5875 0.625 -8.1875 0.625 C-8.1875 1.285 -8.1875 1.945 -8.1875 2.625 C-7.48625 2.08875 -6.785 1.5525 -6.0625 1 C-3.1875 -0.375 -3.1875 -0.375 0 0 Z " fill="#ffffff" transform="translate(595.1875,468.375)"/>
<path d="M0 0 C2.05003227 2.86064675 2.13789014 5.62791059 2.55078125 9.08984375 C2.70933594 10.36214844 2.86789062 11.63445312 3.03125 12.9453125 C3.19560547 14.40904297 3.19560547 14.40904297 3.36328125 15.90234375 C4.02328125 15.90234375 4.68328125 15.90234375 5.36328125 15.90234375 C4.37328125 18.37734375 4.37328125 18.37734375 3.36328125 20.90234375 C-0.30338542 20.90234375 -3.97005208 20.90234375 -7.63671875 20.90234375 C-8.30832031 20.93714844 -8.97992187 20.97195313 -9.671875 21.0078125 C-15.06152402 21.22589078 -15.06152402 21.22589078 -17.63671875 19.77734375 C-19.11573541 17.00418751 -19.02273859 14.9905025 -18.63671875 11.90234375 C-16.44279547 9.02586656 -14.44191643 8.37288824 -10.94921875 7.71484375 C-10.14097656 7.55628906 -9.33273437 7.39773438 -8.5 7.234375 C-7.57767578 7.07001953 -7.57767578 7.07001953 -6.63671875 6.90234375 C-7.29671875 4.92234375 -7.95671875 2.94234375 -8.63671875 0.90234375 C-8.96671875 1.23234375 -9.29671875 1.56234375 -9.63671875 1.90234375 C-9.63671875 3.22234375 -9.63671875 4.54234375 -9.63671875 5.90234375 C-12.51171875 6.52734375 -12.51171875 6.52734375 -15.63671875 6.90234375 C-16.29671875 6.24234375 -16.95671875 5.58234375 -17.63671875 4.90234375 C-17.44921875 2.90234375 -17.44921875 2.90234375 -16.63671875 0.90234375 C-11.68794821 -2.39683661 -5.2820979 -3.54240933 0 0 Z M-7.63671875 9.90234375 C-8.62671875 10.23234375 -9.61671875 10.56234375 -10.63671875 10.90234375 C-10.63671875 12.55234375 -10.63671875 14.20234375 -10.63671875 15.90234375 C-9.31671875 16.23234375 -7.99671875 16.56234375 -6.63671875 16.90234375 C-5.95713272 14.50514943 -5.95713272 14.50514943 -5.63671875 11.90234375 C-6.29671875 11.24234375 -6.95671875 10.58234375 -7.63671875 9.90234375 Z " fill="#ffffff" transform="translate(655.63671875,470.09765625)"/>
<path d="M0 0 C2.3125 0.875 2.3125 0.875 4.3125 3.875 C4.83007274 7.33267345 5.19674301 10.76740239 5.5234375 14.24609375 C5.7232126 16.13017957 6.01120535 18.00446238 6.3125 19.875 C6.9725 20.205 7.6325 20.535 8.3125 20.875 C8.3125 21.535 8.3125 22.195 8.3125 22.875 C5.0125 22.875 1.7125 22.875 -1.6875 22.875 C-3.20265517 19.84468967 -3.33574641 16.5763029 -3.75 13.25 C-3.84087891 12.54359375 -3.93175781 11.8371875 -4.02539062 11.109375 C-4.24933119 9.3649959 -4.46883818 7.62004866 -4.6875 5.875 C-5.3475 5.875 -6.0075 5.875 -6.6875 5.875 C-6.71449725 8.14576842 -6.73389453 10.41662821 -6.75 12.6875 C-6.76160156 13.95207031 -6.77320313 15.21664063 -6.78515625 16.51953125 C-6.84909116 19.87105237 -6.84909116 19.87105237 -5.6875 22.875 C-9.6475 22.875 -13.6075 22.875 -17.6875 22.875 C-17.6875 22.215 -17.6875 21.555 -17.6875 20.875 C-17.0275 20.875 -16.3675 20.875 -15.6875 20.875 C-15.6875 14.935 -15.6875 8.995 -15.6875 2.875 C-16.3475 2.875 -17.0075 2.875 -17.6875 2.875 C-17.6875 2.215 -17.6875 1.555 -17.6875 0.875 C-14.3875 0.875 -11.0875 0.875 -7.6875 0.875 C-7.6875 1.535 -7.6875 2.195 -7.6875 2.875 C-6.6046875 2.1015625 -6.6046875 2.1015625 -5.5 1.3125 C-2.6875 -0.125 -2.6875 -0.125 0 0 Z " fill="#ffffff" transform="translate(679.6875,468.125)"/>
<path d="M0 0 C2.85448107 2.10330184 3.81602546 3.32542668 4.75 6.75 C4.87375 7.86375 4.87375 7.86375 5 9 C0.82262526 10.59138085 -2.53160785 11.21278058 -7 11 C-6.67 12.65 -6.34 14.3 -6 16 C-2.37 16 1.26 16 5 16 C0.54841981 21.78705425 0.54841981 21.78705425 -2.98828125 22.2734375 C-7.48027315 22.46972622 -9.34969305 22.51482633 -13 19.625 C-16.15217907 15.48776497 -16.68745306 12.13680205 -16 7 C-14.27707034 3.55414067 -12.96121291 1.59751073 -9.6875 -0.4375 C-6.10699613 -1.18690779 -3.5417317 -0.90153171 0 0 Z M-7 2 C-8.35618499 3.12534105 -8.35618499 3.12534105 -8.0625 6.0625 C-8.041875 7.031875 -8.02125 8.00125 -8 9 C-6.35 9 -4.7 9 -3 9 C-2.67 8.34 -2.34 7.68 -2 7 C-2.89363605 4.39068734 -2.89363605 4.39068734 -4 2 C-4.99 2 -5.98 2 -7 2 Z " fill="#ffffff" transform="translate(811,469)"/>
<path d="M0 0 C0.721875 0.391875 1.44375 0.78375 2.1875 1.1875 C2.1875 3.1675 2.1875 5.1475 2.1875 7.1875 C0.5375 7.8475 -1.1125 8.5075 -2.8125 9.1875 C-4.4625 7.8675 -6.1125 6.5475 -7.8125 5.1875 C-7.69908363 7.50059705 -7.57146193 9.81300185 -7.4375 12.125 C-7.36789062 13.41277344 -7.29828125 14.70054687 -7.2265625 16.02734375 C-7.08992187 17.07019531 -6.95328125 18.11304688 -6.8125 19.1875 C-6.1525 19.5175 -5.4925 19.8475 -4.8125 20.1875 C-4.8125 20.8475 -4.8125 21.5075 -4.8125 22.1875 C-9.1025 22.1875 -13.3925 22.1875 -17.8125 22.1875 C-17.3175 20.7025 -17.3175 20.7025 -16.8125 19.1875 C-16.66846652 17.85386297 -16.56659577 16.51531954 -16.49609375 15.17578125 C-16.45419922 14.41845703 -16.41230469 13.66113281 -16.36914062 12.88085938 C-16.32982422 12.09517578 -16.29050781 11.30949219 -16.25 10.5 C-16.20681641 9.70271484 -16.16363281 8.90542969 -16.11914062 8.08398438 C-16.01322632 6.11868553 -15.91237449 4.15311504 -15.8125 2.1875 C-16.4725 2.1875 -17.1325 2.1875 -17.8125 2.1875 C-17.8125 1.5275 -17.8125 0.8675 -17.8125 0.1875 C-14.5125 0.1875 -11.2125 0.1875 -7.8125 0.1875 C-7.8125 0.8475 -7.8125 1.5075 -7.8125 2.1875 C-6.7296875 1.383125 -6.7296875 1.383125 -5.625 0.5625 C-2.8125 -0.8125 -2.8125 -0.8125 0 0 Z " fill="#ffffff" transform="translate(860.8125,468.8125)"/>
<path d="M0 0 C0.25 2.5625 0.25 2.5625 0 5 C-1 6 -1 6 -3.4375 6.1875 C-6 6 -6 6 -8 4 C-8 3.01 -8 2.02 -8 1 C-8.66 0.67 -9.32 0.34 -10 0 C-10.02708567 1.60407328 -10.04643483 3.2082785 -10.0625 4.8125 C-10.07410156 5.70582031 -10.08570313 6.59914063 -10.09765625 7.51953125 C-10.11009967 10.13413791 -10.11009967 10.13413791 -9 13 C-4.02093741 13.75427297 -4.02093741 13.75427297 1 14 C-0.15173355 16.46800047 -1.04783565 18.04783565 -3 20 C-7.83496037 20.73594087 -11.8231037 20.69653046 -16.0625 18.1875 C-19.09238837 14.7666583 -19.35187104 11.56288638 -19.27734375 7.06640625 C-18.80692338 3.56144324 -17.3354864 1.58132708 -15 -1 C-9.4867101 -3.75664495 -5.09414483 -3.39609655 0 0 Z " fill="#ffffff" transform="translate(883,471)"/>
<path d="M0 0 C3.63 0 7.26 0 11 0 C11.33 5.61 11.66 11.22 12 17 C12.99 17 13.98 17 15 17 C14.85941524 14.54126232 14.71277001 12.08314825 14.5625 9.625 C14.52318359 8.92632812 14.48386719 8.22765625 14.44335938 7.5078125 C14.25719866 3.62639508 14.25719866 3.62639508 13 0 C16.3 0 19.6 0 23 0 C23.04898438 1.33675781 23.09796875 2.67351562 23.1484375 4.05078125 C23.22347182 5.80470838 23.29901936 7.55861361 23.375 9.3125 C23.4059375 10.19357422 23.436875 11.07464844 23.46875 11.98242188 C23.50742187 12.82998047 23.54609375 13.67753906 23.5859375 14.55078125 C23.63306885 15.72120972 23.63306885 15.72120972 23.68115234 16.9152832 C23.89587889 19.30155768 23.89587889 19.30155768 26 22 C22.7 22 19.4 22 16 22 C16 21.34 16 20.68 16 20 C15.484375 20.33 14.96875 20.66 14.4375 21 C11.1641151 22.34292714 8.50360855 22.25952656 5 22 C2.00882566 19.00882566 2.61281982 15.58087647 2.5 11.5625 C2.46132191 5.47254112 2.46132191 5.47254112 0 0 Z " fill="#ffffff" transform="translate(960,469)"/>
<path d="M0 0 C2.8125 1.625 2.8125 1.625 4.125 4.5625 C5.02328305 8.76931072 5.2351197 13.08007153 5.46875 17.3671875 C5.5821875 18.11226563 5.695625 18.85734375 5.8125 19.625 C6.4725 19.955 7.1325 20.285 7.8125 20.625 C7.8125 21.285 7.8125 21.945 7.8125 22.625 C4.5125 22.625 1.2125 22.625 -2.1875 22.625 C-3.773369 19.453262 -3.56616445 15.98986178 -3.75 12.5 C-3.79318359 11.74589844 -3.83636719 10.99179687 -3.88085938 10.21484375 C-3.9869832 8.35178112 -4.08775001 6.48841476 -4.1875 4.625 C-5.1775 4.955 -6.1675 5.285 -7.1875 5.625 C-7.21449725 7.89576842 -7.23389453 10.16662821 -7.25 12.4375 C-7.26160156 13.70207031 -7.27320313 14.96664063 -7.28515625 16.26953125 C-7.34909116 19.62105237 -7.34909116 19.62105237 -6.1875 22.625 C-10.1475 22.625 -14.1075 22.625 -18.1875 22.625 C-18.1875 21.965 -18.1875 21.305 -18.1875 20.625 C-17.5275 20.625 -16.8675 20.625 -16.1875 20.625 C-16.1875 14.685 -16.1875 8.745 -16.1875 2.625 C-16.8475 2.625 -17.5075 2.625 -18.1875 2.625 C-18.1875 1.965 -18.1875 1.305 -18.1875 0.625 C-14.8875 0.625 -11.5875 0.625 -8.1875 0.625 C-8.1875 1.285 -8.1875 1.945 -8.1875 2.625 C-7.48625 2.08875 -6.785 1.5525 -6.0625 1 C-3.1875 -0.375 -3.1875 -0.375 0 0 Z " fill="#ffffff" transform="translate(1006.1875,468.375)"/>
<path d="M0 0 C0.86625 0.556875 0.86625 0.556875 1.75 1.125 C1.26159618 7.59635061 1.26159618 7.59635061 -1.125 10.0625 C-3.25 11.125 -3.25 11.125 -6.25 11.125 C-6.064375 10.403125 -5.87875 9.68125 -5.6875 8.9375 C-5.23004693 5.99673027 -5.51483643 3.98396942 -6.25 1.125 C-2.80384615 -1.09038462 -2.80384615 -1.09038462 0 0 Z " fill="#ffffff" transform="translate(920.25,484.875)"/>
</svg>
